<?xml version="1.0" encoding="utf-8"?>
<!-- Generator: Adobe Illustrator 15.1.0, SVG Export Plug-In  -->
<!DOCTYPE svg PUBLIC "-//W3C//DTD SVG 1.1//EN" "http://www.w3.org/Graphics/SVG/1.1/DTD/svg11.dtd" [
	<!ENTITY ns_flows "http://ns.adobe.com/Flows/1.0/">
]>
<svg version="1.1"
	 xmlns="http://www.w3.org/2000/svg" xmlns:xlink="http://www.w3.org/1999/xlink" xmlns:a="http://ns.adobe.com/AdobeSVGViewerExtensions/3.0/"
	 x="0px" y="0px" width="600px" height="500px" viewBox="-17.763 -4.359 600 500"
	 overflow="visible" enable-background="new -17.763 -4.359 600 500" xml:space="preserve">
<defs>
</defs>
<path fill="#D2E08C" d="M187.643,112.946c9.243-10.367,18.66-19.714,28.215-28.051c-153.995-0.31-207.525,22.034-215.1,86.779
	c-6.042,51.641,23.856,79.556,96.164,88.028c10.491,1.225,20.772,2.173,31.19,2.872
	C122.972,213.928,142.815,163.218,187.643,112.946z"/>
<path fill="#D2E08C" d="M514.249,149.597l-26.897,30.167c18.099-0.104,37.624-0.875,60.093-2.31L565.485,0.013
	C449.739-0.4,384.12,8.727,350.527,34.237c38.159,3.215,76.207,20.911,112.406,53.189
	C484.665,106.805,499.769,124.389,514.249,149.597z"/>
<path fill="#D2E08C" d="M197.649,382.627c-8.023-7.154-15.347-14.427-21.997-21.805c-9.162,12.33-13.719,27.101-14.708,44.782
	c-2.916,52.145,28.759,78.313,101.772,82.405c39.991,2.227,76.679,0.803,129.321-4.977l9.997-179.061
	c-9.186,0.385-18.039,0.819-26.598,1.302l-113.1,126.836C234.119,413.088,217.083,399.955,197.649,382.627z"/>
<path fill="#AFC83B" d="M418.737,176.541c-72.351-7.371-102.637-34.804-97.379-86.475c2.436-23.965,11.252-42.225,29.169-55.829
	c-45.727-3.854-91.614,13.092-134.669,50.658c9.798,0.02,19.99,0.129,30.615,0.327l-20.74,177.335
	c-38.712,1.889-68.709,1.95-97.622,0.018c3.598,34.051,19.441,67.085,47.541,98.248c25.014-33.656,84.438-49.073,199.786-55.548
	l111.914-125.51C463.106,179.904,441.426,178.845,418.737,176.541z"/>
<path fill="#B0CB2B" d="M225.733,262.557l20.74-177.335c-10.625-0.197-20.817-0.307-30.615-0.327
	c-9.555,8.337-18.972,17.684-28.215,28.051c-44.828,50.272-64.671,100.982-59.532,149.628
	C157.023,264.507,187.021,264.445,225.733,262.557z"/>
<path fill="#90B02B" d="M225.733,262.557l20.74-177.335c-10.625-0.197-20.817-0.307-30.615-0.327
	c-9.555,8.337-18.972,17.684-28.215,28.051c-44.828,50.272-64.671,100.982-59.532,149.628
	C157.023,264.507,187.021,264.445,225.733,262.557z"/>
<path fill="#B0CB2B" d="M321.358,90.065c-5.258,51.671,25.028,79.104,97.379,86.475c22.688,2.304,44.369,3.364,68.614,3.224
	l26.897-30.167c-14.48-25.208-29.584-42.792-51.315-62.171c-36.199-32.279-74.247-49.975-112.406-53.189
	C332.61,47.84,323.794,66.1,321.358,90.065z"/>
<path fill="#90B02B" d="M321.358,90.065c-5.258,51.671,25.028,79.104,97.379,86.475c22.688,2.304,44.369,3.364,68.614,3.224
	l26.897-30.167c-14.48-25.208-29.584-42.792-51.315-62.171c-36.199-32.279-74.247-49.975-112.406-53.189
	C332.61,47.84,323.794,66.1,321.358,90.065z"/>
<path fill="#B0CB2B" d="M175.652,360.822c6.65,7.378,13.974,14.65,21.997,21.805c19.435,17.328,36.47,30.461,64.688,49.483
	l113.1-126.836C260.09,311.749,200.666,327.166,175.652,360.822z"/>
<path fill="#90B02B" d="M175.652,360.822c6.65,7.378,13.974,14.65,21.997,21.805c19.435,17.328,36.47,30.461,64.688,49.483
	l113.1-126.836C260.09,311.749,200.666,327.166,175.652,360.822z"/>
</svg>
