<?xml version="1.0" encoding="utf-8"?>
<!-- Generator: Adobe Illustrator 15.1.0, SVG Export Plug-In  -->
<!DOCTYPE svg PUBLIC "-//W3C//DTD SVG 1.1//EN" "http://www.w3.org/Graphics/SVG/1.1/DTD/svg11.dtd" [
	<!ENTITY ns_flows "http://ns.adobe.com/Flows/1.0/">
]>
<svg version="1.1"
	 xmlns="http://www.w3.org/2000/svg" xmlns:xlink="http://www.w3.org/1999/xlink" xmlns:a="http://ns.adobe.com/AdobeSVGViewerExtensions/3.0/"
	 x="0px" y="0px" width="83px" height="20px" viewBox="0.086 -0.23 83 20"
	 overflow="visible" enable-background="new 0.086 -0.23 83 20" xml:space="preserve">
<defs>
</defs>
<path fill="#939B86" d="M5.545,4.487H3.011v8.125c0,1.879,0.882,2.06,2.512,2.015v0.747c-1.766,0.113-3.462-0.136-3.372-2.762V4.487
	H0V3.741h2.15V0.015h0.86v3.726h2.535V4.487z"/>
<path fill="#939B86" d="M7.292,0v6.23h0.045c0.589-1.743,2.354-2.761,4.165-2.761c4.096,0,4.141,3.282,4.141,4.708v7.197h-0.86
	V8.019c0-1.2-0.136-3.802-3.304-3.802c-2.603,0-4.187,2.014-4.187,4.866v6.292h-0.86V0H7.292z"/>
<path fill="#939B86" d="M17.491,6.321h0.068c0.453-1.516,2.354-2.738,4.458-2.648v0.859c-0.905-0.112-2.173,0.114-3.213,1.132
	c-0.859,0.882-1.222,1.607-1.312,3.35v6.36h-0.86V3.741h0.86V6.321z"/>
<path fill="#939B86" d="M22.093,9.67c-0.046,2.739,1.403,5.228,4.277,5.228c2.195,0,3.757-1.312,4.164-3.463h0.86
	c-0.453,2.716-2.263,4.21-5.024,4.21c-3.395,0-5.183-2.671-5.138-5.885c-0.045-3.191,1.63-6.292,5.138-6.292
	c3.644,0,5.273,2.875,5.115,6.201H22.093z M30.625,8.923c-0.045-2.444-1.584-4.707-4.255-4.707c-2.58,0-4.096,2.399-4.277,4.707
	H30.625z"/>
<path fill="#939B86" d="M33.046,9.67c-0.045,2.739,1.403,5.228,4.278,5.228c2.195,0,3.757-1.312,4.165-3.463h0.858
	c-0.452,2.716-2.262,4.21-5.023,4.21c-3.395,0-5.184-2.671-5.137-5.885c-0.046-3.191,1.629-6.292,5.137-6.292
	c3.643,0,5.273,2.875,5.114,6.201H33.046z M41.579,8.923c-0.045-2.444-1.584-4.707-4.254-4.707c-2.581,0-4.096,2.399-4.278,4.707
	H41.579z"/>
<path fill="#939B86" d="M43.879,11.503c0.137,2.15,1.744,3.396,3.848,3.396c1.517,0,3.689-0.453,3.689-2.467
	c0-1.97-1.992-2.264-3.982-2.671c-2.016-0.407-4.006-0.928-4.006-3.304c0-2.309,2.24-2.987,4.209-2.987
	c2.467,0,4.301,1.063,4.301,3.711h-0.861c-0.021-2.104-1.493-2.964-3.439-2.964c-1.584,0-3.35,0.588-3.35,2.24
	c0,1.856,1.992,2.15,3.87,2.558c2.31,0.43,4.119,0.973,4.119,3.417c0,2.512-2.512,3.214-4.55,3.214c-2.647,0-4.64-1.426-4.707-4.143
	H43.879z"/>
<path fill="#939B86" d="M53.97,6.411h0.045c0.361-1.154,1.676-2.942,4.232-2.942c3.576,0,5.229,2.829,5.229,6.11
	c0,3.531-1.675,6.066-5.229,6.066c-1.924,0-3.553-0.814-4.232-2.693H53.97v6.586h-0.86V3.741h0.86V6.411z M62.615,9.58
	c0-2.648-1.245-5.364-4.368-5.364c-3.102,0-4.256,2.603-4.256,5.364c0,2.761,0.975,5.319,4.256,5.319
	C61.28,14.898,62.615,12.454,62.615,9.58z"/>
<path fill="#939B86" d="M69.495,3.469c3.418,0,5.342,2.784,5.342,6.088c0,3.304-1.924,6.088-5.342,6.088
	c-3.417,0-5.341-2.784-5.341-6.088C64.154,6.253,66.078,3.469,69.495,3.469z M69.495,14.898c2.92,0,4.481-2.558,4.481-5.341
	c0-2.784-1.562-5.342-4.481-5.342c-2.919,0-4.481,2.558-4.481,5.342C65.014,12.341,66.576,14.898,69.495,14.898z"/>
<path fill="#939B86" d="M79.698,4.487h-2.534v8.125c0,1.879,0.882,2.06,2.513,2.015v0.747c-1.766,0.113-3.464-0.136-3.373-2.762
	V4.487h-2.15V3.741h2.15V0.015h0.86v3.726h2.534V4.487z"/>
<path fill="#939B86" d="M81.648,15.396v-1.577h1.523v1.577H81.648z"/>
</svg>
