<?xml version="1.0" encoding="utf-8"?>
<!-- Generator: Adobe Illustrator 15.1.0, SVG Export Plug-In  -->
<!DOCTYPE svg PUBLIC "-//W3C//DTD SVG 1.1//EN" "http://www.w3.org/Graphics/SVG/1.1/DTD/svg11.dtd" [
	<!ENTITY ns_flows "http://ns.adobe.com/Flows/1.0/">
]>
<svg version="1.1"
	 xmlns="http://www.w3.org/2000/svg" xmlns:xlink="http://www.w3.org/1999/xlink" xmlns:a="http://ns.adobe.com/AdobeSVGViewerExtensions/3.0/"
	 x="0px" y="0px" width="82px" height="33px" viewBox="0 0 82 33" overflow="visible" enable-background="new 0 0 82 33"
	 xml:space="preserve">
<defs>
</defs>
<path fill="#939B86" d="M16.46,9.782v1.932h0.117c3.471-2.091,7.056-2.257,9.199-2.257c5.783,0,7.75,1.651,8.502,2.257
	c1.33-0.77,4.221-2.257,9.136-2.257c9.837,0,9.837,3.88,9.837,5.45v9.142h-7.925v-8.144c0-1.687,0-3.557-4.225-3.557
	c-2.081,0-4.222,0.633-4.972,1.568c-0.695,0.799-0.985,1.515-0.985,3.277v6.855H27.22v-7.821c0-2.422,0.057-3.88-4.105-3.88
	c-2.083,0-4.222,0.551-5.033,1.376c-0.636,0.633-1.044,1.294-1.044,3.392v6.933h-7.92V9.782H16.46z"/>
<path fill="#939B86" d="M72.357,12.941h-5.75v5.716c0,2.02,0,2.68,2.352,2.68c1.115,0,2.104-0.13,3.152-0.33l0.246-0.026l0.74,2.9
	c-2.777,0.518-5.811,0.571-6.674,0.571c-2.595,0-5.938-0.386-7.171-1.447c-1.052-0.877-1.177-1.726-1.177-3.885v-6.18h-3.895V9.959
	h3.895V7.141l8.531-2.213V9.96h5.75V12.941L72.357,12.941z"/>
<path fill="#939B86" d="M5.241,32.116C2.089,27.361,0,21.712,0,16.026C0,9.314,2.639,3.842,5.307,0h3.185
	C6.128,5.241,4.521,9.689,4.521,16.164c0,7.426,2.633,13.146,3.833,15.744c0.035,0.037,0.104,0.174,0.104,0.208H5.241z"/>
<path fill="#939B86" d="M76.408,0.071c3.148,4.758,5.236,10.411,5.236,16.093c0,6.71-2.635,12.182-5.305,16.023h-3.188
	c2.363-5.246,3.975-9.694,3.975-16.163c0-7.432-2.636-13.146-3.838-15.751c-0.033-0.032-0.102-0.17-0.102-0.204L76.408,0.071
	L76.408,0.071z"/>
<path fill="#939B86" d="M9.985,27.751h0.929v0.416h0.023c0.329-0.265,0.941-0.487,1.824-0.487c0.871,0,1.482,0.182,1.73,0.527
	c0.211-0.163,0.74-0.527,1.881-0.527c1.882,0,1.895,0.793,1.895,1.008v2.057H17.23v-1.891c0-0.289,0-0.733-1.095-0.733
	c-0.445,0-0.975,0.108-1.223,0.312c-0.198,0.168-0.272,0.35-0.272,0.572v1.74h-1.03v-1.948c0-0.285-0.06-0.675-1.072-0.675
	c-0.553,0-1.07,0.143-1.259,0.347c-0.222,0.243-0.259,0.462-0.259,0.722v1.556H9.985V27.751z"/>
<path fill="#939B86" d="M20.009,28.959c0.059-0.395,0.587-0.861,1.741-0.861c0.742,0,1.329,0.221,1.541,0.479
	c0.119,0.146,0.142,0.271,0.167,0.382L20.009,28.959 M23.421,29.781c-0.13,0.172-0.448,0.617-1.612,0.617
	c-0.918,0-1.776-0.306-1.859-1.024h4.564c0.096-1.619-2.245-1.694-2.764-1.694c-1.859,0-2.859,0.678-2.859,1.59
	c0,0.924,1.024,1.545,2.917,1.545c1.506,0,2.364-0.405,2.672-0.971L23.421,29.781z"/>
<path fill="#939B86" d="M25.87,29.246c0-0.217,0.068-1.148,1.622-1.148c1.259,0,1.67,0.612,1.67,1.196
	c0,1.026-1.294,1.104-1.624,1.104C26.938,30.398,25.87,30.188,25.87,29.246 M29.139,30.744h0.963v-4.139h-1.034v1.485h-0.023
	c-0.318-0.237-0.896-0.411-1.658-0.411c-1.53,0-2.578,0.59-2.578,1.566c0,0.959,1.177,1.568,2.625,1.568
	c0.223,0,1.128,0,1.682-0.451h0.023V30.744z"/>
<path fill="#939B86" d="M31.127,27.751h1.036v2.993h-1.036V27.751 M31.127,26.605h1.036v0.578h-1.036V26.605z"/>
<path fill="#939B86" d="M37.067,29.426c0,0.25-0.046,0.487-0.458,0.708c-0.484,0.252-1.177,0.283-1.471,0.283
	c-0.932,0-1.225-0.263-1.225-0.476c0-0.404,0.813-0.461,1.448-0.508c0.54-0.041,1.305-0.117,1.705-0.189L37.067,29.426
	 M33.998,28.669c0.13-0.25,0.293-0.571,1.589-0.571c1.517,0,1.505,0.422,1.481,0.745c-0.588,0.103-1.705,0.162-1.858,0.175
	c-0.671,0.039-2.399,0.141-2.399,0.937c0,0.497,0.741,0.862,2.082,0.862c0.659,0,1.376-0.076,2.246-0.441
	c0.025,0.076,0.047,0.214,0.212,0.37h1.083c-0.331-0.289-0.331-0.486-0.331-1.252v-0.683c0-0.521,0-1.129-2.364-1.129
	c-2.354,0-2.634,0.659-2.751,0.928L33.998,28.669z"/>
<path fill="#939B86" d="M41.949,28.379h-1.093v1.21c0,0.427,0,0.563,0.447,0.563c0.21,0,0.399-0.028,0.599-0.068l0.047-0.003
	l0.144,0.612c-0.532,0.107-1.106,0.121-1.273,0.121c-0.493,0-1.127-0.082-1.364-0.307c-0.199-0.188-0.223-0.365-0.223-0.82V28.38
	h-0.741v-0.628h0.741v-0.596l1.623-0.469v1.063h1.093V28.379z"/>
<path fill="#939B86" d="M43.551,28.988c-0.013-0.393,0.446-0.701,1.21-0.701c0.248,0,1.167,0.047,1.201,0.701H43.551 M45.868,29.792
	c-0.082,0.136-0.272,0.413-1.024,0.413c-0.917,0-1.305-0.375-1.328-0.73h4.047c0.035-0.887-0.6-1.795-2.894-1.795
	c-1.929,0-2.8,0.776-2.8,1.586c0,0.246,0.093,0.541,0.365,0.834c0.648,0.682,2.058,0.715,2.586,0.715
	c2.023,0,2.531-0.703,2.662-0.891L45.868,29.792z"/>
<path fill="#939B86" d="M49.479,27.751v0.403h0.024c0.706-0.44,1.435-0.475,1.869-0.475c1.178,0,1.578,0.348,1.731,0.475
	c0.271-0.162,0.859-0.475,1.858-0.475c2,0,2,0.816,2,1.146v1.919H55.35v-1.71c0-0.353,0-0.746-0.859-0.746
	c-0.424,0-0.858,0.132-1.01,0.331c-0.144,0.166-0.201,0.312-0.201,0.688v1.438h-1.613v-1.642c0-0.506,0.014-0.814-0.834-0.814
	c-0.423,0-0.857,0.115-1.023,0.29c-0.129,0.133-0.211,0.271-0.211,0.712v1.455h-1.613v-2.993h1.494V27.751z"/>
<path fill="#939B86" d="M59.34,29.316c0-0.435,0.153-0.651,0.543-0.84c0.292-0.139,0.646-0.168,0.868-0.168
	c0.551,0,1.282,0.191,1.282,0.935c0,0.334-0.154,0.963-1.34,0.963C59.938,30.206,59.34,29.924,59.34,29.316 M57.738,27.751v4.131
	h1.613v-1.483c0.232,0.131,0.787,0.416,1.774,0.416c1.354,0,2.565-0.48,2.565-1.539c0-1.075-1.235-1.596-2.555-1.596
	c-0.363,0-1.246,0.063-1.869,0.512h-0.026v-0.44H57.738z"/>
<rect x="64.198" y="26.605" fill="#939B86" width="1.612" height="4.139"/>
<path fill="#939B86" d="M67.949,28.988c-0.012-0.393,0.447-0.701,1.216-0.701c0.244,0,1.162,0.047,1.196,0.701H67.949 M70.27,29.792
	c-0.084,0.136-0.271,0.413-1.025,0.413c-0.917,0-1.305-0.375-1.327-0.73h4.047c0.035-0.887-0.601-1.795-2.894-1.795
	c-1.932,0-2.801,0.776-2.801,1.586c0,0.246,0.094,0.541,0.364,0.834c0.646,0.682,2.058,0.715,2.587,0.715
	c2.022,0,2.53-0.703,2.661-0.891L70.27,29.792z"/>
<polygon fill="#939B86" points="59.876,31.359 59.689,31.359 59.689,31.258 60.189,31.258 60.189,31.359 59.999,31.359 
	59.999,31.846 59.876,31.846 "/>
<polygon fill="#939B86" points="60.27,31.258 60.455,31.258 60.57,31.659 60.57,31.659 60.684,31.258 60.874,31.258 60.874,31.846 
	60.757,31.846 60.757,31.384 60.757,31.384 60.632,31.846 60.512,31.846 60.389,31.384 60.387,31.384 60.387,31.846 60.27,31.846 
	"/>
</svg>
