<?xml version="1.0" encoding="utf-8"?>
<!-- Generator: Adobe Illustrator 15.1.0, SVG Export Plug-In  -->
<!DOCTYPE svg PUBLIC "-//W3C//DTD SVG 1.1//EN" "http://www.w3.org/Graphics/SVG/1.1/DTD/svg11.dtd" [
	<!ENTITY ns_flows "http://ns.adobe.com/Flows/1.0/">
]>
<svg version="1.1"
	 xmlns="http://www.w3.org/2000/svg" xmlns:xlink="http://www.w3.org/1999/xlink" xmlns:a="http://ns.adobe.com/AdobeSVGViewerExtensions/3.0/"
	 x="0px" y="0px" viewBox="0 0 437 153" overflow="visible" enable-background="new 0 0 437 153"
	 xml:space="preserve">
<defs>
</defs>
<path fill="#B1CB2C" d="M51.46,0h23.87v110.5c-12.25,2.33-21.24,3.26-31,3.26C15.19,113.75,0,100.58,0,75.31
	c0-24.34,16.12-40.15,41.08-40.15c3.88,0,6.82,0.31,10.39,1.24V0H51.46z M51.46,55.62c-2.79-0.93-5.11-1.24-8.06-1.24
	c-12.09,0-19.07,7.44-19.07,20.46c0,12.71,6.67,19.69,18.91,19.69c2.63,0,4.81-0.15,8.21-0.62L51.46,55.62L51.46,55.62z"/>
<path fill="#B1CB2C" d="M113.31,36.87V92.2c0,19.07-1.4,28.21-5.58,36.12c-3.88,7.6-8.99,12.4-19.53,17.67l-22.17-10.54
	c10.54-4.96,15.66-9.3,18.91-15.97c3.41-6.82,4.5-14.73,4.5-35.5V36.87H113.31z M89.44,0.13h23.87v24.49H89.44V0.13z"/>
<path fill="#B1CB2C" d="M127.73,42.29c10.54-4.96,20.62-7.13,31.62-7.13c12.25,0,20.31,3.25,23.87,9.61
	c2.01,3.56,2.63,8.21,2.63,18.14v48.52c-10.7,1.55-24.18,2.64-34.1,2.64c-20,0-28.99-6.98-28.99-22.48
	c0-16.74,11.94-24.49,41.23-26.97v-5.27c0-4.34-2.17-5.89-8.22-5.89c-8.83,0-18.76,2.48-28.06,7.29L127.73,42.29L127.73,42.29z
	 M165.09,80.27c-15.81,1.55-20.93,4.03-20.93,10.23c0,4.65,2.95,6.82,9.46,6.82c3.57,0,6.82-0.31,11.47-1.08V80.27L165.09,80.27z"/>
<path fill="#B1CB2C" d="M197.49,40.58c14.1-3.72,25.73-5.42,37.51-5.42c12.25,0,21.08,2.79,26.35,8.21
	c4.96,5.11,6.51,10.69,6.51,22.63v46.81h-23.87V66.94c0-9.15-3.1-12.56-11.62-12.56c-3.26,0-6.2,0.31-11.01,1.71v56.73h-23.87V40.58
	L197.49,40.58z"/>
<path fill="#B1CB2C" d="M277.14,125.84c8.37,4.34,16.74,6.35,25.58,6.35c15.65,0,22.32-6.35,22.32-21.55c0-0.15,0-0.31,0-0.46
	c-4.65,2.32-9.3,3.25-15.5,3.25c-20.93,0-34.26-13.8-34.26-35.65c0-27.13,19.69-42.47,54.56-42.47c10.23,0,19.69,1.08,31.16,3.41
	l-8.17,17.22c-6.36-1.24-0.51-0.17-5.31-0.63v2.48l0.31,10.07l0.15,13.02c0.16,3.25,0.16,6.51,0.31,9.76c0,2.95,0,4.34,0,6.51
	c0,20.46-1.71,30.07-6.82,37.98c-7.44,11.63-20.31,17.36-38.6,17.36c-9.3,0-17.36-1.39-25.73-4.65V125.84L277.14,125.84z
	 M324.58,54.54c-0.31,0-0.62,0-0.78,0h-1.71c-4.65-0.16-10.07,1.08-13.8,3.41c-5.73,3.26-8.68,9.15-8.68,17.52
	c0,11.94,5.89,18.76,16.43,18.76c3.25,0,5.89-0.62,8.99-1.55v-1.71v-6.51c0-2.79-0.15-5.89-0.15-9.15l-0.15-11.01l-0.16-7.91
	L324.58,54.54L324.58,54.54z"/>
<path fill="#B1CB2C" d="M398.06,34.85c23.87,0,38.44,15.04,38.44,39.37c0,24.96-15.19,40.61-39.37,40.61
	c-23.87,0-38.6-15.04-38.6-39.22C358.53,50.5,373.73,34.85,398.06,34.85z M397.59,95.61c9.15,0,14.57-7.6,14.57-20.77
	c0-13.02-5.27-20.77-14.42-20.77c-9.46,0-14.88,7.6-14.88,20.77C382.87,88.02,388.3,95.61,397.59,95.61z"/>
</svg>
