<?xml version="1.0" encoding="utf-8"?>
<!-- Generator: Adobe Illustrator 15.1.0, SVG Export Plug-In  -->
<!DOCTYPE svg PUBLIC "-//W3C//DTD SVG 1.1//EN" "http://www.w3.org/Graphics/SVG/1.1/DTD/svg11.dtd" [
	<!ENTITY ns_flows "http://ns.adobe.com/Flows/1.0/">
]>
<svg version="1.1"
	 xmlns="http://www.w3.org/2000/svg" xmlns:xlink="http://www.w3.org/1999/xlink" xmlns:a="http://ns.adobe.com/AdobeSVGViewerExtensions/3.0/"
	 x="0px" y="0px" viewBox="0 -0.19 142 50" overflow="visible" enable-background="new 0 -0.19 142 50"
	 xml:space="preserve">
<defs>
</defs>
<path fill="#082D20" d="M16.74,0h7.77v35.951c-3.98,0.76-6.91,1.059-10.08,1.059C4.94,37,0,32.72,0,24.5
	c0-7.92,5.24-13.06,13.36-13.06c1.26,0,2.22,0.1,3.38,0.4V0L16.74,0z M16.74,18.09c-0.91-0.3-1.66-0.4-2.62-0.4
	c-3.93,0-6.2,2.42-6.2,6.661c0,4.129,2.17,6.409,6.15,6.409c0.86,0,1.56-0.049,2.67-0.199V18.09L16.74,18.09z"/>
<path fill="#082D20" d="M36.86,11.99v18c0,6.199-0.46,9.18-1.81,11.75c-1.26,2.471-2.92,4.029-6.35,5.75l-7.21-3.43
	c3.43-1.609,5.09-3.031,6.15-5.201c1.11-2.219,1.46-4.789,1.46-11.549V11.99H36.86z M29.1,0.04h7.77v7.97H29.1V0.04z"/>
<path fill="#082D20" d="M41.549,13.76c3.431-1.61,6.711-2.32,10.291-2.32c3.99,0,6.609,1.06,7.77,3.13c0.65,1.16,0.86,2.67,0.86,5.9
	V36.25c-3.479,0.5-7.87,0.859-11.091,0.859c-6.51,0-9.43-2.27-9.43-7.309c0-5.45,3.881-7.97,13.41-8.771v-1.71
	c0-1.41-0.71-1.92-2.67-1.92c-2.87,0-6.1,0.81-9.13,2.37L41.549,13.76L41.549,13.76z M53.709,26.109c-5.14,0.5-6.81,1.311-6.81,3.33
	c0,1.512,0.96,2.221,3.08,2.221c1.16,0,2.22-0.1,3.729-0.35V26.109L53.709,26.109z"/>
<path fill="#082D20" d="M64.25,13.2c4.59-1.21,8.369-1.76,12.199-1.76c3.98,0,6.861,0.91,8.57,2.67
	c1.609,1.66,2.121,3.48,2.121,7.36v15.23h-7.771V21.78c0-2.98-1.01-4.09-3.779-4.09c-1.061,0-2.02,0.1-3.58,0.56v18.451H64.25V13.2
	L64.25,13.2z"/>
<path fill="#082D20" d="M90.16,40.939C92.879,42.349,95.6,43,98.48,43c5.09,0,7.26-2.07,7.26-7.01c0-0.051,0-0.1,0-0.15
	c-1.51,0.75-3.031,1.061-5.041,1.061c-6.809,0-11.139-4.49-11.139-11.6c0-8.83,6.41-13.82,17.75-13.82c3.33,0,6.41,0.35,10.139,1.11
	l-2.66,5.6c-2.068-0.4-0.17-0.06-1.729-0.21v0.81l0.1,3.28l0.049,4.24c0.051,1.061,0.051,2.119,0.102,3.18c0,0.961,0,1.41,0,2.119
	c0,6.66-0.561,9.781-2.221,12.361c-2.42,3.779-6.609,5.65-12.561,5.65c-3.029,0-5.65-0.451-8.369-1.512V40.939L90.16,40.939z
	 M105.59,17.74c-0.1,0-0.199,0-0.25,0h-0.561c-1.51-0.05-3.279,0.35-4.49,1.11c-1.859,1.06-2.818,2.98-2.818,5.7
	c0,3.879,1.92,6.1,5.35,6.1c1.059,0,1.92-0.199,2.92-0.5v-0.561V27.47c0-0.91-0.051-1.92-0.051-2.98l-0.049-3.58l-0.051-2.57V17.74
	L105.59,17.74z"/>
<path fill="#082D20" d="M129.5,11.34c7.76,0,12.5,4.89,12.5,12.81c0,8.12-4.939,13.209-12.811,13.209
	c-7.77,0-12.561-4.889-12.561-12.758C116.641,16.43,121.58,11.34,129.5,11.34z M129.34,31.099c2.98,0,4.74-2.469,4.74-6.759
	c0-4.24-1.711-6.76-4.689-6.76c-3.08,0-4.842,2.47-4.842,6.76C124.549,28.63,126.32,31.099,129.34,31.099z"/>
</svg>
