<?xml version="1.0" encoding="utf-8"?>
<!-- Generator: Adobe Illustrator 15.1.0, SVG Export Plug-In  -->
<!DOCTYPE svg PUBLIC "-//W3C//DTD SVG 1.1//EN" "http://www.w3.org/Graphics/SVG/1.1/DTD/svg11.dtd" [
	<!ENTITY ns_flows "http://ns.adobe.com/Flows/1.0/">
]>
<svg version="1.1"
	 xmlns="http://www.w3.org/2000/svg" xmlns:xlink="http://www.w3.org/1999/xlink" xmlns:a="http://ns.adobe.com/AdobeSVGViewerExtensions/3.0/"
	 x="0px" y="0px" width="142px" height="50px" viewBox="0 -0.2 142 50" overflow="visible" enable-background="new 0 -0.2 142 50"
	 xml:space="preserve">
<defs>
</defs>
<path fill="#FFFFFF" d="M16.74,0h7.77v35.95c-3.98,0.76-6.91,1.06-10.08,1.06C4.94,37,0,32.72,0,24.5c0-7.92,5.24-13.06,13.36-13.06
	c1.26,0,2.22,0.1,3.38,0.4L16.74,0L16.74,0z M16.74,18.09c-0.91-0.3-1.66-0.4-2.62-0.4c-3.93,0-6.2,2.42-6.2,6.66
	c0,4.13,2.17,6.41,6.15,6.41c0.86,0,1.56-0.05,2.67-0.2L16.74,18.09L16.74,18.09z"/>
<path fill="#FFFFFF" d="M36.86,11.99v18c0,6.2-0.46,9.18-1.81,11.75c-1.26,2.47-2.92,4.03-6.35,5.75l-7.21-3.43
	c3.43-1.61,5.09-3.03,6.15-5.2c1.11-2.22,1.46-4.79,1.46-11.55V11.99H36.86z M29.1,0.04h7.77v7.97H29.1V0.04z"/>
<path fill="#FFFFFF" d="M41.55,13.76c3.43-1.61,6.71-2.32,10.29-2.32c3.99,0,6.61,1.06,7.77,3.13c0.65,1.16,0.86,2.67,0.86,5.9
	v15.78c-3.48,0.5-7.87,0.86-11.09,0.86c-6.51,0-9.43-2.27-9.43-7.31c0-5.45,3.88-7.97,13.41-8.77v-1.71c0-1.41-0.71-1.92-2.67-1.92
	c-2.87,0-6.1,0.81-9.13,2.37L41.55,13.76L41.55,13.76z M53.71,26.11c-5.14,0.5-6.81,1.31-6.81,3.33c0,1.51,0.96,2.22,3.08,2.22
	c1.16,0,2.22-0.1,3.73-0.35V26.11L53.71,26.11z"/>
<path fill="#FFFFFF" d="M64.25,13.2c4.59-1.21,8.37-1.76,12.2-1.76c3.98,0,6.86,0.91,8.57,2.67c1.61,1.66,2.12,3.48,2.12,7.36V36.7
	h-7.77V21.78c0-2.98-1.01-4.09-3.78-4.09c-1.06,0-2.02,0.1-3.58,0.56V36.7h-7.76V13.2L64.25,13.2z"/>
<path fill="#FFFFFF" d="M90.16,40.94C92.88,42.35,95.6,43,98.48,43c5.09,0,7.26-2.07,7.26-7.01c0-0.05,0-0.1,0-0.15
	c-1.51,0.75-3.03,1.06-5.04,1.06c-6.81,0-11.14-4.49-11.14-11.6c0-8.83,6.41-13.82,17.75-13.82c3.33,0,6.41,0.35,10.14,1.11
	l-2.66,5.6c-2.07-0.4-0.17-0.06-1.73-0.21v0.81l0.1,3.28l0.05,4.24c0.05,1.06,0.05,2.12,0.1,3.18c0,0.96,0,1.41,0,2.12
	c0,6.66-0.56,9.78-2.22,12.36c-2.42,3.78-6.61,5.65-12.56,5.65c-3.03,0-5.65-0.45-8.37-1.51V40.94L90.16,40.94z M105.59,17.74
	c-0.1,0-0.2,0-0.25,0h-0.56c-1.51-0.05-3.28,0.35-4.49,1.11c-1.86,1.06-2.82,2.98-2.82,5.7c0,3.88,1.92,6.1,5.35,6.1
	c1.06,0,1.92-0.2,2.92-0.5v-0.56v-2.12c0-0.91-0.05-1.92-0.05-2.98l-0.05-3.58l-0.05-2.57L105.59,17.74L105.59,17.74z"/>
<path fill="#FFFFFF" d="M129.5,11.34c7.76,0,12.5,4.89,12.5,12.81c0,8.12-4.94,13.21-12.81,13.21c-7.77,0-12.56-4.89-12.56-12.76
	C116.64,16.43,121.58,11.34,129.5,11.34z M129.34,31.1c2.98,0,4.74-2.47,4.74-6.76c0-4.24-1.71-6.76-4.69-6.76
	c-3.08,0-4.84,2.47-4.84,6.76C124.55,28.63,126.32,31.1,129.34,31.1z"/>
</svg>
