<?xml version="1.0" encoding="utf-8"?>
<!-- Generator: Adobe Illustrator 15.1.0, SVG Export Plug-In  -->
<!DOCTYPE svg PUBLIC "-//W3C//DTD SVG 1.1//EN" "http://www.w3.org/Graphics/SVG/1.1/DTD/svg11.dtd" [
	<!ENTITY ns_flows "http://ns.adobe.com/Flows/1.0/">
]>
<svg version="1.1"
	 xmlns="http://www.w3.org/2000/svg" xmlns:xlink="http://www.w3.org/1999/xlink" xmlns:a="http://ns.adobe.com/AdobeSVGViewerExtensions/3.0/"
	 x="0px" y="0px" width="60px" height="24px" viewBox="0 -0.17 60 24" overflow="visible" enable-background="new 0 -0.17 60 24"
	 xml:space="preserve">
<defs>
</defs>
<path fill="#FFFFFF" d="M12.1,7.19V8.6h0.09c2.55-1.54,5.18-1.66,6.76-1.66c4.25,0,5.69,1.22,6.25,1.66
	c0.98-0.57,3.1-1.66,6.71-1.66c7.23,0,7.23,2.85,7.23,4.01v6.72h-5.82v-5.99c0-1.24,0-2.62-3.1-2.62c-1.53,0-3.1,0.47-3.65,1.16
	c-0.51,0.58-0.72,1.11-0.72,2.41v5.03h-5.81v-5.74c0-1.78,0.04-2.85-3.02-2.85c-1.53,0-3.1,0.41-3.7,1.01
	c-0.47,0.46-0.77,0.95-0.77,2.5v5.09H6.71V7.19H12.1z"/>
<path fill="#FFFFFF" d="M53.18,9.51h-4.22v4.2c0,1.48,0,1.97,1.73,1.97c0.82,0,1.54-0.1,2.32-0.24l0.18-0.02l0.54,2.13
	c-2.04,0.38-4.27,0.42-4.91,0.42c-1.91,0-4.36-0.28-5.27-1.06c-0.77-0.65-0.86-1.27-0.86-2.85V9.51h-2.86V7.32h2.86V5.25l6.27-1.63
	v3.7h4.22V9.51z"/>
<path fill="#FFFFFF" d="M3.85,23.59C1.54,20.11,0,15.96,0,11.78C0,6.84,1.94,2.82,3.9,0h2.34C4.51,3.85,3.31,7.12,3.31,11.88
	c0,5.46,1.94,9.67,2.81,11.57c0.02,0.02,0.08,0.13,0.08,0.15L3.85,23.59L3.85,23.59z"/>
<path fill="#FFFFFF" d="M56.15,0.05C58.47,3.55,60,7.7,60,11.88c0,4.94-1.94,8.95-3.9,11.78h-2.34c1.73-3.85,2.93-7.12,2.93-11.88
	c0-5.47-1.94-9.67-2.82-11.57c-0.02-0.02-0.07-0.13-0.07-0.15H56.15L56.15,0.05z"/>
<path fill="#FFFFFF" d="M7.34,20.39h0.68v0.31h0.02c0.24-0.2,0.69-0.36,1.34-0.36c0.64,0,1.09,0.13,1.27,0.39
	c0.15-0.12,0.54-0.39,1.39-0.39c1.39,0,1.4,0.58,1.4,0.74v1.52h-0.76v-1.39c0-0.21,0-0.54-0.8-0.54c-0.32,0-0.71,0.08-0.9,0.23
	c-0.15,0.12-0.19,0.25-0.19,0.42v1.28h-0.76v-1.43c0-0.21-0.04-0.5-0.79-0.5c-0.4,0-0.79,0.1-0.92,0.25
	c-0.17,0.18-0.19,0.34-0.19,0.53v1.14H7.34V20.39z"/>
<path fill="#FFFFFF" d="M14.71,21.28c0.04-0.28,0.44-0.63,1.27-0.63c0.54,0,0.98,0.17,1.13,0.35c0.09,0.11,0.1,0.2,0.12,0.28H14.71
	 M17.21,21.88c-0.1,0.13-0.33,0.45-1.19,0.45c-0.68,0-1.31-0.22-1.36-0.75h3.35c0.07-1.18-1.65-1.25-2.03-1.25
	c-1.36,0-2.1,0.5-2.1,1.17c0,0.68,0.75,1.14,2.15,1.14c1.1,0,1.73-0.3,1.96-0.71L17.21,21.88z"/>
<path fill="#FFFFFF" d="M19,21.5c0-0.16,0.05-0.84,1.19-0.84c0.92,0,1.22,0.46,1.22,0.89c0,0.75-0.95,0.81-1.19,0.81
	C19.8,22.34,19,22.19,19,21.5 M21.41,22.6h0.71v-3.04h-0.76v1.09h-0.02c-0.24-0.17-0.66-0.3-1.22-0.3c-1.12,0-1.9,0.43-1.9,1.15
	c0,0.71,0.86,1.16,1.93,1.16c0.17,0,0.83,0,1.24-0.33h0.02L21.41,22.6L21.41,22.6z"/>
<path fill="#FFFFFF" d="M22.88,20.39h0.76v2.21h-0.76V20.39 M22.88,19.55h0.76v0.43h-0.76V19.55z"/>
<path fill="#FFFFFF" d="M27.24,21.62c0,0.19-0.03,0.36-0.34,0.52c-0.36,0.19-0.86,0.21-1.08,0.21c-0.68,0-0.9-0.19-0.9-0.35
	c0-0.3,0.6-0.34,1.06-0.38c0.4-0.03,0.96-0.08,1.25-0.14V21.62 M24.98,21.07c0.1-0.19,0.22-0.42,1.17-0.42c1.12,0,1.1,0.32,1.1,0.55
	c-0.44,0.07-1.25,0.12-1.37,0.13c-0.49,0.02-1.76,0.11-1.76,0.69c0,0.37,0.54,0.63,1.53,0.63c0.49,0,1.01-0.06,1.65-0.32
	c0.02,0.06,0.03,0.16,0.15,0.28h0.79C28,22.39,28,22.24,28,21.68v-0.5c0-0.38,0-0.83-1.73-0.83s-1.93,0.49-2.02,0.68L24.98,21.07z"
	/>
<path fill="#FFFFFF" d="M30.83,20.85h-0.8v0.89c0,0.32,0,0.41,0.33,0.41c0.15,0,0.29-0.02,0.44-0.05h0.03l0.11,0.45
	c-0.39,0.07-0.81,0.09-0.94,0.09c-0.36,0-0.83-0.07-1-0.22c-0.15-0.13-0.16-0.27-0.16-0.61v-0.96H28.3V20.4h0.54v-0.44l1.19-0.34
	v0.78h0.8V20.85L30.83,20.85z"/>
<path fill="#FFFFFF" d="M32,21.3c-0.01-0.29,0.32-0.52,0.88-0.52c0.19,0,0.86,0.03,0.88,0.52H32 M33.71,21.89
	c-0.06,0.11-0.2,0.31-0.75,0.31c-0.68,0-0.96-0.28-0.97-0.53h2.98c0.02-0.65-0.44-1.32-2.12-1.32c-1.42,0-2.06,0.57-2.06,1.17
	c0,0.18,0.07,0.4,0.27,0.62c0.48,0.5,1.51,0.52,1.91,0.52c1.48,0,1.86-0.52,1.96-0.66L33.71,21.89z"/>
<path fill="#FFFFFF" d="M36.36,20.39v0.29h0.03c0.52-0.32,1.05-0.35,1.37-0.35c0.87,0,1.16,0.26,1.27,0.35
	c0.19-0.12,0.63-0.35,1.36-0.35c1.47,0,1.47,0.6,1.47,0.84v1.41h-1.19v-1.26c0-0.26,0-0.55-0.63-0.55c-0.32,0-0.63,0.1-0.74,0.24
	c-0.11,0.12-0.15,0.23-0.15,0.5v1.06h-1.18v-1.21c0-0.37,0.01-0.6-0.62-0.6c-0.31,0-0.63,0.08-0.75,0.21
	c-0.1,0.1-0.15,0.19-0.15,0.52v1.06h-1.19v-2.2h1.1L36.36,20.39L36.36,20.39z"/>
<path fill="#FFFFFF" d="M43.61,21.54c0-0.32,0.11-0.48,0.4-0.62c0.22-0.11,0.47-0.12,0.64-0.12c0.41,0,0.94,0.14,0.94,0.69
	c0,0.25-0.11,0.7-0.98,0.7C44.05,22.2,43.61,21.99,43.61,21.54 M42.44,20.39v3.04h1.18v-1.1c0.17,0.1,0.58,0.31,1.31,0.31
	c1,0,1.89-0.35,1.89-1.13c0-0.79-0.91-1.18-1.88-1.18c-0.27,0-0.92,0.05-1.37,0.38h-0.01v-0.32L42.44,20.39L42.44,20.39z"/>
<rect x="47.18" y="19.55" fill="#FFFFFF" width="1.18" height="3.04"/>
<path fill="#FFFFFF" d="M49.94,21.3c-0.01-0.29,0.33-0.52,0.89-0.52c0.18,0,0.86,0.03,0.88,0.52H49.94 M51.64,21.89
	c-0.07,0.11-0.19,0.31-0.75,0.31c-0.67,0-0.96-0.28-0.97-0.53h2.98c0.02-0.65-0.44-1.32-2.12-1.32c-1.42,0-2.05,0.57-2.05,1.17
	c0,0.18,0.07,0.4,0.27,0.62c0.47,0.5,1.52,0.52,1.9,0.52c1.49,0,1.86-0.52,1.95-0.66L51.64,21.89z"/>
<polygon fill="#FFFFFF" points="44,23.04 43.87,23.04 43.87,22.97 44.24,22.97 44.24,23.04 44.09,23.04 44.09,23.4 44,23.4 "/>
<polygon fill="#FFFFFF" points="44.29,22.97 44.42,22.97 44.51,23.26 44.51,23.26 44.59,22.97 44.74,22.97 44.74,23.4 44.65,23.4 
	44.65,23.06 44.65,23.06 44.56,23.4 44.47,23.4 44.38,23.06 44.38,23.06 44.38,23.4 44.29,23.4 "/>
</svg>
