<?xml version="1.0" encoding="utf-8"?>
<!-- Generator: Adobe Illustrator 15.1.0, SVG Export Plug-In  -->
<!DOCTYPE svg PUBLIC "-//W3C//DTD SVG 1.1//EN" "http://www.w3.org/Graphics/SVG/1.1/DTD/svg11.dtd" [
	<!ENTITY ns_flows "http://ns.adobe.com/Flows/1.0/">
]>
<svg version="1.1"
	 xmlns="http://www.w3.org/2000/svg" xmlns:xlink="http://www.w3.org/1999/xlink" xmlns:a="http://ns.adobe.com/AdobeSVGViewerExtensions/3.0/"
	 x="0px" y="0px" width="80px" height="32px" viewBox="0 0 80 32" overflow="visible" enable-background="new 0 0 80 32"
	 xml:space="preserve">
<defs>
</defs>
<path fill="#FFFFFF" d="M16.13,9.58v1.89h0.12c3.4-2.05,6.91-2.21,9.01-2.21c5.67,0,7.59,1.62,8.33,2.21
	c1.3-0.76,4.14-2.21,8.95-2.21c9.64,0,9.64,3.8,9.64,5.34v8.96h-7.76v-7.98c0-1.65,0-3.49-4.14-3.49c-2.04,0-4.14,0.62-4.87,1.54
	c-0.68,0.78-0.96,1.48-0.96,3.21v6.71H26.7v-7.66c0-2.37,0.05-3.8-4.03-3.8c-2.04,0-4.14,0.54-4.93,1.34
	c-0.62,0.62-1.02,1.27-1.02,3.33v6.79H8.94V9.58H16.13z"/>
<path fill="#FFFFFF" d="M70.9,12.68h-5.63v5.6c0,1.97,0,2.63,2.31,2.63c1.09,0,2.06-0.13,3.09-0.32l0.24-0.03l0.72,2.84
	c-2.72,0.5-5.69,0.56-6.54,0.56c-2.54,0-5.81-0.37-7.03-1.42c-1.03-0.86-1.15-1.69-1.15-3.8v-6.06H53.1V9.76h3.81V7l8.36-2.17v4.93
	h5.63V12.68z"/>
<path fill="#FFFFFF" d="M5.13,31.46C2.05,26.81,0,21.28,0,15.7C0,9.12,2.59,3.76,5.2,0h3.12c-2.31,5.13-3.9,9.49-3.9,15.84
	c0,7.28,2.58,12.89,3.75,15.43c0.03,0.03,0.1,0.17,0.1,0.2L5.13,31.46L5.13,31.46z"/>
<path fill="#FFFFFF" d="M74.87,0.07C77.96,4.73,80,10.27,80,15.84c0,6.58-2.58,11.93-5.2,15.7h-3.12c2.31-5.14,3.9-9.5,3.9-15.84
	c0-7.29-2.59-12.89-3.76-15.43c-0.03-0.03-0.1-0.17-0.1-0.2L74.87,0.07L74.87,0.07z"/>
<path fill="#FFFFFF" d="M9.79,27.19h0.91v0.41h0.03c0.32-0.26,0.92-0.48,1.79-0.48c0.85,0,1.46,0.18,1.69,0.52
	c0.2-0.16,0.72-0.52,1.85-0.52c1.85,0,1.86,0.77,1.86,0.99v2.02h-1.01v-1.85c0-0.28,0-0.72-1.07-0.72c-0.43,0-0.95,0.11-1.2,0.31
	c-0.2,0.16-0.26,0.34-0.26,0.56v1.7h-1.01v-1.91c0-0.28-0.06-0.66-1.05-0.66c-0.54,0-1.05,0.14-1.23,0.34
	c-0.22,0.24-0.26,0.45-0.26,0.71v1.52H9.79V27.19z"/>
<path fill="#FFFFFF" d="M19.61,28.37c0.06-0.38,0.58-0.84,1.7-0.84c0.72,0,1.3,0.22,1.51,0.47c0.12,0.14,0.14,0.26,0.16,0.37H19.61
	 M22.94,29.18c-0.13,0.17-0.44,0.6-1.58,0.6c-0.9,0-1.74-0.3-1.82-1h4.47c0.09-1.58-2.2-1.66-2.71-1.66c-1.82,0-2.8,0.66-2.8,1.56
	c0,0.9,1,1.52,2.86,1.52c1.47,0,2.31-0.4,2.62-0.95L22.94,29.18z"/>
<path fill="#FFFFFF" d="M25.34,28.66c0-0.21,0.07-1.12,1.59-1.12c1.23,0,1.63,0.61,1.63,1.18c0,1-1.27,1.08-1.59,1.08
	C26.4,29.79,25.34,29.58,25.34,28.66 M28.55,30.13h0.94v-4.05h-1.01v1.45h-0.03c-0.32-0.23-0.88-0.4-1.63-0.4
	c-1.5,0-2.53,0.58-2.53,1.53c0,0.94,1.15,1.54,2.57,1.54c0.22,0,1.11,0,1.65-0.44h0.03V30.13z"/>
<path fill="#FFFFFF" d="M30.5,27.19h1.01v2.94H30.5V27.19 M30.5,26.07h1.01v0.57H30.5V26.07z"/>
<path fill="#FFFFFF" d="M36.32,28.83c0,0.25-0.04,0.48-0.45,0.69c-0.48,0.25-1.15,0.28-1.44,0.28c-0.91,0-1.2-0.25-1.2-0.47
	c0-0.4,0.8-0.45,1.42-0.5c0.53-0.04,1.28-0.11,1.67-0.19V28.83 M33.31,28.09c0.13-0.25,0.29-0.56,1.56-0.56
	c1.49,0,1.47,0.42,1.46,0.73c-0.58,0.1-1.67,0.16-1.82,0.17c-0.66,0.03-2.35,0.14-2.35,0.92c0,0.49,0.72,0.84,2.04,0.84
	c0.65,0,1.35-0.08,2.2-0.43c0.03,0.08,0.04,0.21,0.2,0.37h1.06c-0.32-0.28-0.32-0.48-0.32-1.23v-0.67c0-0.51,0-1.11-2.31-1.11
	c-2.31,0-2.58,0.65-2.7,0.91L33.31,28.09z"/>
<path fill="#FFFFFF" d="M41.11,27.8h-1.07v1.18c0,0.42,0,0.55,0.44,0.55c0.2,0,0.39-0.03,0.59-0.07h0.04l0.15,0.6
	c-0.52,0.1-1.08,0.12-1.25,0.12c-0.48,0-1.11-0.09-1.34-0.3c-0.2-0.18-0.22-0.36-0.22-0.81v-1.28h-0.72V27.2h0.72v-0.59l1.59-0.46
	v1.04h1.07V27.8L41.11,27.8z"/>
<path fill="#FFFFFF" d="M42.67,28.4c-0.02-0.38,0.43-0.69,1.18-0.69c0.25,0,1.14,0.04,1.18,0.69H42.67 M44.95,29.19
	c-0.08,0.14-0.26,0.41-1,0.41c-0.9,0-1.28-0.37-1.3-0.71h3.97c0.03-0.87-0.59-1.76-2.83-1.76c-1.89,0-2.74,0.76-2.74,1.56
	c0,0.24,0.09,0.53,0.36,0.82c0.64,0.67,2.02,0.7,2.54,0.7c1.98,0,2.48-0.69,2.61-0.88L44.95,29.19z"/>
<path fill="#FFFFFF" d="M48.48,27.19v0.39h0.04c0.69-0.43,1.4-0.47,1.83-0.47c1.16,0,1.55,0.34,1.69,0.47
	c0.26-0.16,0.84-0.47,1.82-0.47c1.96,0,1.96,0.8,1.96,1.12v1.88h-1.58v-1.68c0-0.35,0-0.73-0.84-0.73c-0.42,0-0.84,0.13-0.99,0.32
	c-0.14,0.16-0.2,0.31-0.2,0.67v1.41h-1.58v-1.61c0-0.49,0.01-0.8-0.82-0.8c-0.42,0-0.84,0.11-1,0.28c-0.13,0.13-0.2,0.26-0.2,0.7
	v1.42h-1.58v-2.94h1.46V27.19z"/>
<path fill="#FFFFFF" d="M58.14,28.72c0-0.43,0.15-0.64,0.53-0.83c0.29-0.14,0.63-0.16,0.85-0.16c0.54,0,1.26,0.19,1.26,0.92
	c0,0.33-0.15,0.94-1.31,0.94C58.73,29.6,58.14,29.32,58.14,28.72 M56.58,27.19v4.05h1.58v-1.46c0.23,0.13,0.78,0.41,1.74,0.41
	c1.33,0,2.52-0.47,2.52-1.51c0-1.05-1.21-1.57-2.5-1.57c-0.36,0-1.23,0.06-1.83,0.5h-0.02v-0.43H56.58z"/>
<rect x="62.9" y="26.07" fill="#FFFFFF" width="1.58" height="4.05"/>
<path fill="#FFFFFF" d="M66.58,28.4c-0.01-0.38,0.44-0.69,1.19-0.69c0.24,0,1.14,0.04,1.17,0.69H66.58 M68.85,29.19
	c-0.09,0.14-0.26,0.41-1,0.41c-0.89,0-1.28-0.37-1.3-0.71h3.97c0.03-0.87-0.59-1.76-2.83-1.76c-1.89,0-2.74,0.76-2.74,1.56
	c0,0.24,0.09,0.53,0.36,0.82c0.63,0.67,2.02,0.7,2.54,0.7c1.98,0,2.48-0.69,2.6-0.88L68.85,29.19z"/>
<polygon fill="#FFFFFF" points="58.67,30.72 58.49,30.72 58.49,30.63 58.98,30.63 58.98,30.72 58.79,30.72 58.79,31.2 58.67,31.2 
	"/>
<polygon fill="#FFFFFF" points="59.06,30.63 59.23,30.63 59.35,31.02 59.35,31.02 59.46,30.63 59.65,30.63 59.65,31.2 59.53,31.2 
	59.53,30.75 59.53,30.75 59.41,31.2 59.29,31.2 59.17,30.75 59.17,30.75 59.17,31.2 59.06,31.2 "/>
</svg>
