<?xml version="1.0" encoding="utf-8"?>
<!-- Generator: Adobe Illustrator 15.1.0, SVG Export Plug-In  -->
<!DOCTYPE svg PUBLIC "-//W3C//DTD SVG 1.1//EN" "http://www.w3.org/Graphics/SVG/1.1/DTD/svg11.dtd" [
	<!ENTITY ns_flows "http://ns.adobe.com/Flows/1.0/">
]>
<svg version="1.1"
	 xmlns="http://www.w3.org/2000/svg" xmlns:xlink="http://www.w3.org/1999/xlink" xmlns:a="http://ns.adobe.com/AdobeSVGViewerExtensions/3.0/"
	 x="0px" y="0px" width="80px" height="19px" viewBox="0 -0.1 80 19" overflow="visible" enable-background="new 0 -0.1 80 19"
	 xml:space="preserve">
<defs>
</defs>
<path fill="#FFFFFF" d="M5.33,4.31H2.9v7.82c0,1.8,0.85,1.98,2.42,1.94v0.72c-1.7,0.11-3.33-0.13-3.24-2.65V4.31H0V3.6h2.07V0.01
	H2.9V3.6h2.44V4.31z"/>
<path fill="#FFFFFF" d="M7.01,0v5.99h0.04c0.57-1.68,2.26-2.65,4.01-2.65c3.94,0,3.98,3.16,3.98,4.53v6.92h-0.83V7.71
	c0-1.15-0.13-3.66-3.18-3.66c-2.5,0-4.03,1.94-4.03,4.68v6.05H6.18V0H7.01z"/>
<path fill="#FFFFFF" d="M16.82,6.08h0.07c0.44-1.46,2.26-2.63,4.29-2.55v0.83c-0.87-0.11-2.09,0.11-3.09,1.09
	c-0.83,0.85-1.18,1.54-1.26,3.22v6.12h-0.83V3.6h0.83V6.08z"/>
<path fill="#FFFFFF" d="M21.25,9.3c-0.04,2.63,1.35,5.03,4.12,5.03c2.11,0,3.61-1.26,4.01-3.33h0.83c-0.44,2.62-2.18,4.05-4.83,4.05
	c-3.27,0-4.99-2.57-4.94-5.66c-0.04-3.07,1.57-6.05,4.94-6.05c3.5,0,5.07,2.76,4.92,5.96H21.25z M29.46,8.58
	c-0.04-2.35-1.52-4.53-4.09-4.53c-2.48,0-3.94,2.31-4.12,4.53H29.46z"/>
<path fill="#FFFFFF" d="M31.78,9.3c-0.04,2.63,1.35,5.03,4.12,5.03c2.11,0,3.61-1.26,4.01-3.33h0.83c-0.44,2.62-2.18,4.05-4.83,4.05
	c-3.27,0-4.99-2.57-4.94-5.66c-0.04-3.07,1.57-6.05,4.94-6.05c3.5,0,5.07,2.76,4.92,5.96H31.78z M39.99,8.58
	c-0.04-2.35-1.52-4.53-4.09-4.53c-2.48,0-3.94,2.31-4.12,4.53H39.99z"/>
<path fill="#FFFFFF" d="M42.21,11.06c0.13,2.07,1.68,3.27,3.7,3.27c1.46,0,3.55-0.44,3.55-2.37c0-1.89-1.92-2.18-3.83-2.57
	c-1.94-0.39-3.85-0.89-3.85-3.18c0-2.22,2.16-2.87,4.05-2.87c2.37,0,4.14,1.02,4.14,3.57h-0.83c-0.02-2.02-1.44-2.85-3.31-2.85
	c-1.52,0-3.22,0.57-3.22,2.16c0,1.79,1.91,2.07,3.72,2.46c2.22,0.41,3.96,0.94,3.96,3.29c0,2.42-2.42,3.09-4.38,3.09
	c-2.55,0-4.46-1.37-4.53-3.98H42.21z"/>
<path fill="#FFFFFF" d="M51.91,6.17h0.04c0.35-1.11,1.61-2.83,4.07-2.83c3.44,0,5.03,2.72,5.03,5.88c0,3.4-1.61,5.84-5.03,5.84
	c-1.85,0-3.42-0.78-4.07-2.59h-0.04v6.33h-0.83V3.6h0.83V6.17z M60.23,9.21c0-2.55-1.2-5.16-4.2-5.16c-2.98,0-4.09,2.5-4.09,5.16
	s0.94,5.11,4.09,5.11C58.94,14.33,60.23,11.98,60.23,9.21z"/>
<path fill="#FFFFFF" d="M66.85,3.34c3.29,0,5.14,2.68,5.14,5.85c0,3.18-1.85,5.85-5.14,5.85s-5.14-2.68-5.14-5.85
	C61.71,6.01,63.56,3.34,66.85,3.34z M66.85,14.33c2.81,0,4.31-2.46,4.31-5.14s-1.5-5.14-4.31-5.14c-2.81,0-4.31,2.46-4.31,5.14
	C62.53,11.87,64.04,14.33,66.85,14.33z"/>
<path fill="#FFFFFF" d="M76.66,4.31h-2.44v7.82c0,1.8,0.85,1.98,2.42,1.94v0.72c-1.7,0.11-3.33-0.13-3.24-2.65V4.31h-2.07V3.6h2.07
	V0.01h0.83V3.6h2.44V4.31z"/>
<path fill="#FFFFFF" d="M78.53,14.81v-1.52H80v1.52H78.53z"/>
</svg>
