<?xml version="1.0" encoding="utf-8"?>
<!-- Generator: Adobe Illustrator 15.1.0, SVG Export Plug-In  -->
<!DOCTYPE svg PUBLIC "-//W3C//DTD SVG 1.1//EN" "http://www.w3.org/Graphics/SVG/1.1/DTD/svg11.dtd" [
	<!ENTITY ns_flows "http://ns.adobe.com/Flows/1.0/">
]>
<svg version="1.1"
	 xmlns="http://www.w3.org/2000/svg" xmlns:xlink="http://www.w3.org/1999/xlink" xmlns:a="http://ns.adobe.com/AdobeSVGViewerExtensions/3.0/"
	 x="0px" y="0px" width="60px" height="15px" viewBox="0 -0.45 60 15" overflow="visible" enable-background="new 0 -0.45 60 15"
	 xml:space="preserve">
<defs>
</defs>
<path fill="#FFFFFF" d="M4,3.23H2.17V9.1c0,1.35,0.64,1.48,1.81,1.46v0.54c-1.27,0.08-2.5-0.1-2.43-1.99V3.23H0V2.7h1.55V0.01h0.62
	V2.7H4L4,3.23L4,3.23z"/>
<path fill="#FFFFFF" d="M5.26,0v4.49h0.03C5.71,3.23,6.98,2.5,8.29,2.5c2.96,0,2.99,2.37,2.99,3.4v5.19h-0.62V5.78
	c0-0.86-0.1-2.75-2.38-2.75c-1.88,0-3.02,1.46-3.02,3.51v4.54H4.64V0H5.26z"/>
<path fill="#FFFFFF" d="M12.61,4.56h0.05c0.33-1.1,1.69-1.97,3.22-1.91v0.62c-0.65-0.08-1.57,0.08-2.32,0.82
	c-0.62,0.64-0.88,1.16-0.94,2.42v4.59H12V2.7h0.62L12.61,4.56L12.61,4.56z"/>
<path fill="#FFFFFF" d="M15.94,6.97c-0.03,1.97,1.01,3.77,3.09,3.77c1.58,0,2.71-0.95,3.01-2.5h0.62c-0.33,1.97-1.63,3.04-3.62,3.04
	c-2.45,0-3.74-1.93-3.71-4.25c-0.03-2.3,1.18-4.54,3.71-4.54c2.62,0,3.8,2.07,3.69,4.47H15.94z M22.09,6.44
	c-0.03-1.76-1.14-3.4-3.07-3.4c-1.86,0-2.95,1.73-3.09,3.4H22.09z"/>
<path fill="#FFFFFF" d="M23.83,6.97c-0.03,1.97,1.01,3.77,3.09,3.77c1.58,0,2.71-0.95,3.01-2.5h0.62c-0.33,1.97-1.64,3.04-3.62,3.04
	c-2.45,0-3.74-1.93-3.71-4.25c-0.03-2.3,1.18-4.54,3.71-4.54c2.62,0,3.8,2.07,3.69,4.47H23.83z M29.99,6.44
	c-0.03-1.76-1.14-3.4-3.07-3.4c-1.86,0-2.96,1.73-3.09,3.4H29.99z"/>
<path fill="#FFFFFF" d="M31.66,8.3c0.1,1.55,1.26,2.45,2.78,2.45c1.09,0,2.66-0.33,2.66-1.78c0-1.42-1.44-1.64-2.87-1.93
	c-1.46-0.29-2.89-0.67-2.89-2.39c0-1.66,1.62-2.15,3.04-2.15c1.78,0,3.11,0.77,3.11,2.68h-0.62c-0.02-1.52-1.08-2.14-2.48-2.14
	c-1.14,0-2.42,0.43-2.42,1.62c0,1.34,1.43,1.55,2.79,1.85c1.66,0.31,2.97,0.7,2.97,2.47c0,1.81-1.82,2.32-3.29,2.32
	c-1.91,0-3.34-1.03-3.4-2.99h0.62V8.3z"/>
<path fill="#FFFFFF" d="M38.93,4.63h0.03c0.26-0.83,1.21-2.12,3.05-2.12c2.58,0,3.77,2.04,3.77,4.41c0,2.55-1.21,4.38-3.77,4.38
	c-1.39,0-2.57-0.59-3.05-1.94h-0.03v4.75h-0.62V2.7h0.62V4.63z M45.17,6.91c0-1.91-0.9-3.87-3.15-3.87c-2.23,0-3.07,1.88-3.07,3.87
	c0,2,0.71,3.83,3.07,3.83C44.21,10.75,45.17,8.98,45.17,6.91z"/>
<path fill="#FFFFFF" d="M50.14,2.5c2.47,0,3.86,2.01,3.86,4.39c0,2.39-1.39,4.39-3.86,4.39c-2.47,0-3.85-2.01-3.85-4.39
	C46.28,4.51,47.67,2.5,50.14,2.5z M50.14,10.75c2.11,0,3.23-1.84,3.23-3.86c0-2.01-1.12-3.85-3.23-3.85c-2.11,0-3.23,1.85-3.23,3.85
	C46.9,8.9,48.03,10.75,50.14,10.75z"/>
<path fill="#FFFFFF" d="M57.5,3.23h-1.83V9.1c0,1.35,0.64,1.48,1.81,1.46v0.54c-1.28,0.08-2.5-0.1-2.43-1.99V3.23H53.5V2.7h1.55
	V0.01h0.62V2.7h1.83L57.5,3.23L57.5,3.23z"/>
<path fill="#FFFFFF" d="M58.9,11.11V9.97H60v1.14H58.9z"/>
</svg>
