<?xml version="1.0" encoding="utf-8"?>
<!-- Generator: Adobe Illustrator 15.1.0, SVG Export Plug-In  -->
<!DOCTYPE svg PUBLIC "-//W3C//DTD SVG 1.1//EN" "http://www.w3.org/Graphics/SVG/1.1/DTD/svg11.dtd" [
	<!ENTITY ns_flows "http://ns.adobe.com/Flows/1.0/">
]>
<svg version="1.1"
	 xmlns="http://www.w3.org/2000/svg" xmlns:xlink="http://www.w3.org/1999/xlink" xmlns:a="http://ns.adobe.com/AdobeSVGViewerExtensions/3.0/"
	 x="0px" y="0px" width="145px" height="35px" viewBox="0 -0.47 145 35" overflow="visible" enable-background="new 0 -0.47 145 35"
	 xml:space="preserve">
<defs>
</defs>
<path fill="#FFFFFF" d="M9.67,7.82H5.25v14.17c0,3.27,1.54,3.59,4.38,3.51v1.3c-3.08,0.2-6.04-0.24-5.88-4.81V7.82H0v-1.3h3.75v-6.5
	h1.5v6.5h4.42V7.82z"/>
<path fill="#FFFFFF" d="M12.71,0v10.86h0.08c1.03-3.04,4.1-4.81,7.26-4.81c7.14,0,7.22,5.72,7.22,8.21V26.8h-1.5V13.98
	c0-2.09-0.24-6.63-5.76-6.63c-4.54,0-7.3,3.51-7.3,8.48V26.8h-1.5V0H12.71z"/>
<path fill="#FFFFFF" d="M30.49,11.02h0.12c0.79-2.64,4.1-4.77,7.77-4.62v1.5c-1.58-0.2-3.79,0.2-5.6,1.97
	c-1.5,1.54-2.13,2.8-2.29,5.84V26.8h-1.5V6.52h1.5V11.02z"/>
<path fill="#FFFFFF" d="M38.52,16.86c-0.08,4.77,2.45,9.12,7.46,9.12c3.83,0,6.55-2.29,7.26-6.04h1.5
	c-0.79,4.74-3.95,7.34-8.76,7.34c-5.92,0-9.04-4.66-8.96-10.26c-0.08-5.56,2.84-10.97,8.96-10.97c6.35,0,9.19,5.01,8.92,10.81H38.52
	z M53.39,15.56c-0.08-4.26-2.76-8.21-7.42-8.21c-4.5,0-7.14,4.18-7.46,8.21H53.39z"/>
<path fill="#FFFFFF" d="M57.61,16.86c-0.08,4.77,2.45,9.12,7.46,9.12c3.83,0,6.55-2.29,7.26-6.04h1.5
	c-0.79,4.74-3.95,7.34-8.76,7.34c-5.92,0-9.04-4.66-8.96-10.26c-0.08-5.56,2.84-10.97,8.96-10.97c6.35,0,9.19,5.01,8.92,10.81H57.61
	z M72.49,15.56c-0.08-4.26-2.76-8.21-7.42-8.21c-4.5,0-7.14,4.18-7.46,8.21H72.49z"/>
<path fill="#FFFFFF" d="M76.5,20.05c0.24,3.75,3.04,5.92,6.71,5.92c2.64,0,6.43-0.79,6.43-4.3c0-3.43-3.47-3.95-6.94-4.66
	c-3.51-0.71-6.98-1.62-6.98-5.76c0-4.02,3.91-5.21,7.34-5.21c4.3,0,7.5,1.85,7.5,6.47h-1.5c-0.04-3.67-2.61-5.17-6-5.17
	c-2.76,0-5.84,1.03-5.84,3.91c0,3.24,3.47,3.75,6.75,4.46c4.03,0.75,7.18,1.7,7.18,5.96c0,4.38-4.38,5.6-7.93,5.6
	c-4.62,0-8.09-2.49-8.21-7.22H76.5z"/>
<path fill="#FFFFFF" d="M94.09,11.18h0.08c0.63-2.01,2.92-5.13,7.38-5.13c6.23,0,9.11,4.93,9.11,10.65c0,6.16-2.92,10.58-9.11,10.58
	c-3.36,0-6.2-1.42-7.38-4.7h-0.08v11.48h-1.5V6.52h1.5V11.18z M109.16,16.7c0-4.62-2.17-9.35-7.61-9.35c-5.41,0-7.42,4.54-7.42,9.35
	c0,4.81,1.7,9.27,7.42,9.27C106.83,25.97,109.16,21.71,109.16,16.7z"/>
<path fill="#FFFFFF" d="M121.16,6.05c5.96,0,9.31,4.85,9.31,10.61c0,5.76-3.35,10.61-9.31,10.61c-5.96,0-9.31-4.85-9.31-10.61
	C111.84,10.9,115.2,6.05,121.16,6.05z M121.16,25.97c5.09,0,7.81-4.46,7.81-9.31c0-4.85-2.72-9.31-7.81-9.31
	c-5.09,0-7.81,4.46-7.81,9.31C113.34,21.51,116.07,25.97,121.16,25.97z"/>
<path fill="#FFFFFF" d="M138.95,7.82h-4.42v14.17c0,3.27,1.54,3.59,4.38,3.51v1.3c-3.08,0.2-6.04-0.24-5.88-4.81V7.82h-3.75v-1.3
	h3.75v-6.5h1.5v6.5h4.42V7.82z"/>
<path fill="#FFFFFF" d="M142.34,26.84v-2.75H145v2.75H142.34z"/>
</svg>
