<svg xmlns="http://www.w3.org/2000/svg" width="564" height="408"><path d="M143.715 83.142c-.095 .562-.246 1.195-.457 1.898s-.492 1.348-.844 1.934c-.352 .587-.786 1.079-1.301 1.477-.517 .398-1.125 .598-1.828 .598-.517 0-1.032-.059-1.547-.176-.517-.116-1.055-.176-1.617-.176-.235 0-.481 .082-.738 .246-.258 .165-.504 .246-.738 .246-.235 0-.434-.035-.598-.105-.165-.07-.364-.105-.598-.105-.141 0-.399 .047-.773 .141-.376 .095-.773 .188-1.195 .281-.422 .095-.821 .2-1.195 .316l-.773 .246c-1.266 .422-2.531 .798-3.797 1.125-1.266 .328-2.579 .539-3.938 .633-.281-.094-.703-.199-1.266-.316-.562-.116-.984-.176-1.266-.176-.562 0-.926 .235-1.09 .703-.165 .469-.481 .82-.949 1.055-.562 .328-1.266 .517-2.109 .562-.844 .047-1.688 .117-2.531 .211-.844 .095-1.629 .271-2.355 .527-.728 .258-1.255 .738-1.582 1.441-.235-.046-.481-.081-.738-.105-.258-.023-.527-.035-.809-.035-1.501 0-2.907 .293-4.219 .879-1.313 .587-2.649 1.114-4.008 1.582 .234 .422 .397 .938 .492 1.547 .093 .609 .187 1.207 .281 1.793 .093 .587 .222 1.149 .387 1.688 .164 .539 .457 .949 .879 1.23 0 .281-.06 .517-.176 .703-.118 .188-.246 .352-.387 .492l-.492 .492c-.141 .141-.235 .352-.281 .633-.141 .562-.211 1.137-.211 1.723 0 .587-.329 1.02-.984 1.301 .046 .141 .07 .398 .07 .773 0 .469-.07 .914-.211 1.336s-.188 .891-.141 1.406c-.798 .891-1.466 1.805-2.004 2.742-.54 .938-.949 1.944-1.23 3.023-1.735 1.733-3.505 3.48-5.309 5.238-1.805 1.758-3.656 3.456-5.555 5.098-1.898 1.641-3.856 3.199-5.871 4.676-2.016 1.477-4.103 2.777-6.258 3.902h-.492c-1.079 0-1.923 .187-2.531 .562-.61 .375-1.383 .703-2.32 .984-.703-.188-1.547-.281-2.531-.281-.562 0-1.137 .023-1.723 .07-.587 .046-1.185 .07-1.793 .07-.798 0-1.512-.095-2.145-.281-.633-.188-1.243-.398-1.828-.633-.587-.235-1.185-.469-1.793-.703-.61-.235-1.266-.398-1.969-.492-2.907-2.907-5.203-6.293-6.891-10.16s-2.531-7.84-2.531-11.918c0-1.874 .257-3.715 .773-5.52 .515-1.804 .773-3.621 .773-5.449 .844-1.688 1.582-3.421 2.215-5.203 .633-1.781 1.276-3.562 1.934-5.344 .656-1.781 1.371-3.526 2.145-5.238 .773-1.711 1.698-3.34 2.777-4.887 .234-1.219 .608-2.273 1.125-3.164 .515-.89 1.078-1.874 1.688-2.953 0-1.03 .222-1.979 .668-2.848 .445-.867 .714-1.839 .809-2.918 .749-.703 1.359-1.5 1.828-2.391 .468-.89 .914-1.804 1.336-2.742 .422-.938 .902-1.839 1.441-2.707 .538-.867 1.276-1.605 2.215-2.215 .093-.327 .151-.691 .176-1.09 .023-.397 .128-.714 .316-.949l1.477-1.617c.468-.608 .902-1.23 1.301-1.863 .397-.633 .832-1.206 1.301-1.723 .281-.281 .585-.516 .914-.703 .327-.187 .608-.397 .844-.633 .234-.234 .316-.538 .246-.914-.07-.375 .011-.679 .246-.914 .093-.093 .234-.187 .422-.281 .187-.093 .352-.187 .492-.281 .608-.422 1.125-.844 1.547-1.266s1.007-.726 1.758-.914c.656-.515 1.253-1.03 1.793-1.547 .538-.515 1.09-.984 1.652-1.406s1.171-.761 1.828-1.02c.656-.257 1.477-.387 2.461-.387 .187 0 .375 .012 .562 .035 .187 .024 .375 .035 .562 .035 1.921 1.782 3.117 3.962 3.586 6.539-.517 .657-.926 1.36-1.23 2.109-.306 .75-.645 1.501-1.02 2.25-.798 .281-1.547 .692-2.25 1.23-.703 .539-1.396 1.09-2.074 1.652-.68 .562-1.383 1.055-2.109 1.477-.728 .422-1.536 .633-2.426 .633-.376 .328-.974 .855-1.793 1.582-.821 .728-1.665 1.488-2.531 2.285-.868 .798-1.665 1.547-2.391 2.25-.728 .703-1.185 1.195-1.371 1.477-.141 .235-.258 .446-.352 .633-.095 .188-.188 .398-.281 .633l-1.828 3.094c-1.032 1.782-2.086 3.527-3.164 5.238-1.079 1.712-2.016 3.505-2.812 5.379-.376 .844-.68 1.688-.914 2.531-.235 .844-.469 1.734-.703 2.672-.095 .281-.211 .562-.352 .844s-.258 .539-.352 .773c-.517 .984-.938 1.898-1.266 2.742-.329 .844-.517 1.828-.562 2.953-1.172 2.626-2.262 5.263-3.27 7.91-1.009 2.648-1.77 5.379-2.285 8.191 .281 .938 .41 1.888 .387 2.848-.024 .961-.035 1.91-.035 2.848 0 1.171 .081 2.145 .246 2.918 .164 .773 .397 1.477 .703 2.109 .304 .633 .644 1.289 1.02 1.969 .375 .679 .773 1.487 1.195 2.426 .703 .562 1.336 1.16 1.898 1.793s1.101 1.324 1.617 2.074c1.781 .89 3.586 1.336 5.414 1.336 1.312 0 2.647-.211 4.008-.633 1.359-.422 2.683-.949 3.973-1.582 1.289-.633 2.542-1.325 3.762-2.074 1.218-.75 2.391-1.477 3.516-2.18 1.969-1.172 3.679-2.438 5.133-3.797 1.452-1.36 2.777-2.789 3.973-4.289s2.308-3.104 3.34-4.816c1.03-1.711 2.109-3.526 3.234-5.449 .046-.234 .141-.516 .281-.844l.422-1.055 .387-1.02c.116-.305 .176-.503 .176-.598 0-.375-.083-.644-.246-.809-.165-.164-.246-.34-.246-.527 0-.375 .093-.633 .281-.773 .187-.141 .41-.281 .668-.422 .257-.141 .492-.305 .703-.492 .211-.187 .316-.538 .316-1.055-.095-.046-.258-.07-.492-.07-.235 0-.469 .024-.703 .07-.235 .047-.469 .07-.703 .07-.562 0-1.032-.187-1.406-.562-.235 .095-.469 .246-.703 .457-.235 .211-.457 .434-.668 .668-.211 .235-.411 .446-.598 .633-.188 .188-.352 .281-.492 .281-.235 0-.411-.046-.527-.141-.118-.094-.271-.141-.457-.141-.798 0-1.501 .188-2.109 .562-.61 .376-1.266 .68-1.969 .914-.141 0-.281-.011-.422-.035-.141-.023-.281-.035-.422-.035-.517 0-1.02 .082-1.512 .246-.492 .165-.961 .341-1.406 .527-.446 .188-.903 .352-1.371 .492-.469 .141-.938 .188-1.406 .141-1.032 .376-1.981 .773-2.848 1.195-.868 .422-1.863 .587-2.988 .492-.329 .141-.668 .293-1.02 .457-.352 .165-.692 .363-1.02 .598-.281 .095-.492 .141-.633 .141-.235 0-.422-.116-.562-.352-.376 .422-.868 .715-1.477 .879-.61 .165-1.243 .306-1.898 .422-.657 .117-1.278 .258-1.863 .422-.587 .165-1.044 .481-1.371 .949-.517-.422-1.125-.633-1.828-.633s-1.383 .13-2.039 .387c-.657 .258-1.36 .387-2.109 .387-.281 0-.469-.046-.562-.141-.188-.516-.399-1.03-.633-1.547-.235-.516-.61-.89-1.125-1.125-.095-.516-.176-1.02-.246-1.512s-.105-.973-.105-1.441c0-1.266 .375-2.414 1.125-3.445 .656-.234 1.324-.433 2.004-.598 .679-.164 1.347-.362 2.004-.598 .515 .095 1.03 .165 1.547 .211 .515 .047 1.03 .07 1.547 .07 1.921 0 3.797-.246 5.625-.738s3.632-1.02 5.414-1.582c1.688-.516 3.398-.984 5.133-1.406 1.733-.422 3.468-.89 5.203-1.406 1.64-.422 3.257-.902 4.852-1.441 1.593-.538 3.257-.879 4.992-1.02 1.125-.797 2.496-1.336 4.113-1.617s3.104-.586 4.465-.914c2.155-.516 4.289-1.043 6.398-1.582 2.109-.538 4.265-1.02 6.469-1.441 2.437-.516 4.816-1.148 7.137-1.898 2.32-.749 4.651-1.547 6.996-2.391h.703c.796 0 1.617-.094 2.461-.281 .844-.187 1.688-.281 2.531-.281 .234 0 .433 .012 .598 .035 .164 .024 .339 .035 .527 .035 .141 0 .492-.105 1.055-.316s.96-.362 1.195-.457c.608 .657 1.289 1.242 2.039 1.758 .746 .52 1.403 1.105 1.966 1.761z"/><path d="M158.199 66.189v.281c-.329 .095-.492 .328-.492 .703-.517 .235-1.055 .411-1.617 .527-.562 .117-1.102 .293-1.617 .527-.517-.046-1.044-.081-1.582-.105-.54-.023-1.067-.035-1.582-.035-1.406 0-2.812 .047-4.219 .141-1.406 .095-2.812 .095-4.219 0-.657 .376-1.371 .668-2.145 .879s-1.512 .316-2.215 .316c-.562 0-1.055-.07-1.477-.211-1.125 .562-2.355 1.031-3.691 1.406-1.336 .376-2.684 .738-4.043 1.09-1.36 .352-2.661 .75-3.902 1.195-1.243 .446-2.333 1.066-3.27 1.863-.095 .657-.165 1.301-.211 1.934-.047 .633-.07 1.255-.07 1.863 0 .657 .035 1.266 .105 1.828s.222 1.125 .457 1.688c.234 .095 .503 .165 .809 .211 .304 .047 .573 .07 .809 .07 .234 0 .468-.035 .703-.105 .234-.07 .397-.222 .492-.457 .703-.094 1.406-.129 2.109-.105 .703 .024 1.406 .035 2.109 .035s1.394-.023 2.074-.07c.679-.046 1.347-.164 2.004-.352 .749-.187 1.487-.305 2.215-.352l2.145-.141c.703-.046 1.429-.129 2.18-.246 .749-.116 1.522-.362 2.32-.738 .608 .235 1.23 .352 1.863 .352s1.253 .047 1.863 .141c.327 .235 .598 .492 .809 .773s.316 .609 .316 .984c0 .657-.235 1.312-.703 1.969-.469 .657-.844 1.266-1.125 1.828h-.773c-1.125 0-2.215 .152-3.27 .457-1.055 .306-2.109 .657-3.164 1.055-1.055 .398-2.109 .75-3.164 1.055-1.055 .306-2.145 .457-3.27 .457-.188 0-.293 .105-.316 .316-.024 .211-.083 .363-.176 .457-.235-.046-.587-.07-1.055-.07-1.079 0-2.109 .117-3.094 .352-.984 .235-1.993 .352-3.023 .352-.281 0-.562-.011-.844-.035-.281-.023-.562-.059-.844-.105-.235 .376-.54 .622-.914 .738-.376 .117-.728 .316-1.055 .598-.141 .422-.223 .938-.246 1.547l-.07 1.863c-.024 .633-.083 1.23-.176 1.793-.095 .562-.281 1.009-.562 1.336 .046 .235 .234 .316 .562 .246 .327-.07 .492 .082 .492 .457 0 .422-.047 .868-.141 1.336-.095 .469-.141 .938-.141 1.406 0 .891 .105 1.863 .316 2.918s.538 2.028 .984 2.918c.445 .891 1.042 1.629 1.793 2.215 .749 .587 1.688 .879 2.812 .879 .749 0 1.452-.141 2.109-.422 .656-.281 1.195-.749 1.617-1.406l.352-.07c.187 0 .362 .024 .527 .07 .164 .047 .339 .07 .527 .07 .281 0 .644-.176 1.09-.527 .445-.352 .937-.762 1.477-1.23 .538-.468 1.09-.925 1.652-1.371 .562-.445 1.101-.762 1.617-.949 .327-.656 .644-1.312 .949-1.969 .304-.656 .761-1.171 1.371-1.547v-2.039c.468-.516 .972-.984 1.512-1.406 .538-.422 .949-.96 1.23-1.617 .234 .095 .457 .165 .668 .211 .211 .047 .433 .07 .668 .07 .234 0 .48-.023 .738-.07 .257-.046 .503-.116 .738-.211 .375 .517 .668 1.09 .879 1.723s.48 1.23 .809 1.793c-.422 .844-.914 1.853-1.477 3.023-.562 1.172-1.172 2.345-1.828 3.516-.657 1.172-1.348 2.285-2.074 3.34-.728 1.055-1.441 1.863-2.145 2.426-.141 .141-.446 .305-.914 .492-.517 .375-.984 .738-1.406 1.09s-.821 .762-1.195 1.23c-1.36 .422-2.661 .984-3.902 1.688-1.243 .703-2.473 1.382-3.691 2.039-.562-.141-1.172-.211-1.828-.211-.562 0-1.125 .035-1.688 .105s-1.172 .105-1.828 .105c-.188-.235-.457-.387-.809-.457s-.481-.316-.387-.738c-1.594-.095-2.883-.527-3.867-1.301s-1.817-1.723-2.496-2.848c-.68-1.125-1.23-2.344-1.652-3.656-.422-1.312-.867-2.577-1.336-3.797v-.211c0-.234 .095-.375 .281-.422 .188-.046 .281-.187 .281-.422 0-.094-.023-.164-.07-.211-.141-.516-.257-.96-.352-1.336-.093-.375-.141-.819-.141-1.336 0-.749 .047-1.487 .141-2.215 .095-.727 .141-1.465 .141-2.215 0-.749-.093-1.406-.281-1.969 .188-.234 .341-.551 .457-.949 .118-.397 .2-.809 .246-1.23s.081-.844 .105-1.266c.023-.422 .081-.797 .176-1.125-.188-.516-.352-.973-.492-1.371-.141-.397-.211-.879-.211-1.441v-.492c.468-.797 .867-1.617 1.195-2.461 .327-.844 .679-1.711 1.055-2.602v-.211c0-1.359-.047-2.718-.141-4.078-.095-1.359-.141-2.718-.141-4.078v-1.336c0-.468 .023-.914 .07-1.336 .375-.187 .656-.445 .844-.773 .187-.327 .468-.586 .844-.773h2.32l.422-.703c.141-.234 .234-.492 .281-.773 .515-.141 1.02-.34 1.512-.598 .492-.257 .949-.527 1.371-.809l1.793-1.02c.538-.305 1.078-.562 1.617-.773 .538-.211 1.113-.387 1.723-.527 .608-.141 1.312-.257 2.109-.352 .375 0 .621-.07 .738-.211 .116-.141 .292-.305 .527-.492 .562 .095 1.125 .176 1.688 .246s1.125 .105 1.688 .105c1.125 0 2.18-.211 3.164-.633 1.406 0 2.8-.023 4.184-.07 1.382-.046 2.777-.07 4.184-.07 1.218 0 2.437 .047 3.656 .141 1.218 .095 2.414 .258 3.586 .492 .422-.141 .89-.211 1.406-.211 .562 0 1.136 .06 1.723 .176 .585 .117 1.16 .13 1.723 .035 .046 .517 .176 .949 .387 1.301s.321 .76 .321 1.228z"/><path d="M215.363 65.697c-.188 .609-.492 1.172-.914 1.688l-1.195 1.477c-.376 .469-.692 .974-.949 1.512-.258 .539-.341 1.16-.246 1.863l-.352-.035-.352-.035c-.75 0-1.325 .176-1.723 .527-.399 .352-.926 .645-1.582 .879-.095-.281-.211-.551-.352-.809-.141-.257-.352-.433-.633-.527-1.125 .235-2.25 .411-3.375 .527-1.125 .117-2.25 .271-3.375 .457-.517 .095-1.032 .223-1.547 .387-.517 .165-1.055 .316-1.617 .457-.281 .095-.587 .13-.914 .105-.329-.023-.657-.011-.984 .035-1.125 .047-2.345 .13-3.656 .246-1.313 .117-2.485 .481-3.516 1.09-.469-.094-.961-.164-1.477-.211-.517-.046-1.032-.07-1.547-.07-1.125 0-2.355 .105-3.691 .316s-2.521 .622-3.551 1.23c-.235-.094-.481-.164-.738-.211-.258-.046-.552-.07-.879-.07l-.211 .035-.211 .035c-.047 .422 .011 .833 .176 1.23 .164 .398 .457 .715 .879 .949-.188 .517-.281 1.079-.281 1.688 0 .798 .058 1.594 .176 2.391 .116 .798 .176 1.594 .176 2.391 0 .891-.118 1.594-.352 2.109 .468 1.406 .703 2.907 .703 4.5 0 .562-.035 1.114-.105 1.652-.07 .539-.105 1.114-.105 1.723 0 .517 .187 .926 .562 1.23 .375 .306 .562 .715 .562 1.23 0 .188-.047 .376-.141 .562 .656-.141 1.289-.34 1.898-.598 .608-.257 1.241-.387 1.898-.387 .375 0 .738 .07 1.09 .211s.668 .328 .949 .562c-.047 .235-.083 .492-.105 .773-.024 .281-.035 .562-.035 .844 0 .517 .011 .996 .035 1.441 .023 .446 .058 .926 .105 1.441-.376 .657-.809 1.242-1.301 1.758-.492 .517-.833 1.172-1.02 1.969-.703 0-1.325 .152-1.863 .457-.54 .306-1.044 .633-1.512 .984-.469 .352-.938 .68-1.406 .984-.469 .306-.984 .457-1.547 .457-.703 0-1.195-.105-1.477-.316s-.492-.433-.633-.668l-.387-.633c-.118-.187-.364-.257-.738-.211-.095-.608-.281-1.184-.562-1.723-.281-.538-.575-1.065-.879-1.582-.306-.516-.61-1.043-.914-1.582-.306-.538-.527-1.09-.668-1.652-.281-1.219-.399-2.484-.352-3.797 .046-1.312-.165-2.577-.633-3.797 .093-.656 .164-1.324 .211-2.004 .046-.679 .07-1.347 .07-2.004 0-1.312-.035-2.612-.105-3.902-.07-1.289-.13-2.612-.176-3.973-.329-.422-.527-.902-.598-1.441-.07-.538-.13-1.065-.176-1.582-.141-.141-.293-.281-.457-.422-.165-.141-.271-.327-.316-.562-.376-.094-.657-.141-.844-.141-.657 0-1.208 .152-1.652 .457-.446 .306-.856 .457-1.23 .457-.376 0-.728-.046-1.055-.141-.329-.094-.657-.141-.984-.141-.281 0-.434 .06-.457 .176-.024 .117-.13 .223-.316 .316-.141 .095-.469 .188-.984 .281-.517 .095-1.09 .176-1.723 .246s-1.243 .13-1.828 .176c-.587 .047-.974 .07-1.16 .07-.749 0-1.324-.151-1.723-.457-.397-.305-.879-.644-1.441-1.02 .095-.281 .141-.468 .141-.562 0-.468-.141-.854-.422-1.16-.281-.305-.422-.573-.422-.809 0-.516 .2-.914 .598-1.195 .399-.281 .622-.727 .668-1.336 1.079-.468 2.18-.819 3.305-1.055 1.125-.234 2.273-.422 3.445-.562 1.171-.141 2.331-.305 3.48-.492 1.148-.187 2.285-.492 3.41-.914 .327 .047 .644 .082 .949 .105 .304 .024 .621 .035 .949 .035 1.406 0 2.8-.151 4.184-.457 1.382-.305 2.8-.457 4.254-.457 .375 0 .749 .024 1.125 .07 .375 .047 .749 .117 1.125 .211 1.874-.281 3.737-.586 5.59-.914 1.851-.327 3.762-.608 5.73-.844 .937-.094 1.863-.176 2.777-.246s1.839-.176 2.777-.316c.327-.046 .573-.129 .738-.246 .164-.116 .246-.362 .246-.738 .422 .188 .89 .281 1.406 .281 .796 0 1.57-.141 2.32-.422 .749-.281 1.522-.422 2.32-.422 .187 0 .352 .012 .492 .035 .141 .024 .281 .035 .422 .035 .327 0 .503-.151 .527-.457 .023-.305 .246-.503 .668-.598 .327-.094 .796-.164 1.406-.211 .608-.046 1.253-.105 1.934-.176 .679-.07 1.312-.164 1.898-.281 .585-.116 1.02-.292 1.301-.527l.492-.773c.844 .047 1.464 .411 1.863 1.09 .397 .68 .621 1.418 .668 2.215 .187 .188 .457 .271 .809 .246 .352-.023 .668-.035 .949-.035h.216z"/><path d="M266.058 65.697c-.188 .609-.492 1.172-.914 1.688l-1.195 1.477c-.376 .469-.692 .974-.949 1.512-.258 .539-.341 1.16-.246 1.863l-.352-.035-.352-.035c-.75 0-1.325 .176-1.723 .527-.399 .352-.926 .645-1.582 .879-.095-.281-.211-.551-.352-.809-.141-.257-.352-.433-.633-.527-1.125 .235-2.25 .411-3.375 .527-1.125 .117-2.25 .271-3.375 .457-.517 .095-1.032 .223-1.547 .387-.517 .165-1.055 .316-1.617 .457-.281 .095-.587 .13-.914 .105-.329-.023-.657-.011-.984 .035-1.125 .047-2.345 .13-3.656 .246-1.313 .117-2.485 .481-3.516 1.09-.469-.094-.961-.164-1.477-.211-.517-.046-1.032-.07-1.547-.07-1.125 0-2.355 .105-3.691 .316s-2.521 .622-3.551 1.23c-.235-.094-.481-.164-.738-.211-.258-.046-.552-.07-.879-.07l-.211 .035-.211 .035c-.047 .422 .011 .833 .176 1.23 .164 .398 .457 .715 .879 .949-.188 .517-.281 1.079-.281 1.688 0 .798 .058 1.594 .176 2.391 .116 .798 .176 1.594 .176 2.391 0 .891-.118 1.594-.352 2.109 .468 1.406 .703 2.907 .703 4.5 0 .562-.035 1.114-.105 1.652-.07 .539-.105 1.114-.105 1.723 0 .517 .187 .926 .562 1.23 .375 .306 .562 .715 .562 1.23 0 .188-.047 .376-.141 .562 .656-.141 1.289-.34 1.898-.598 .608-.257 1.241-.387 1.898-.387 .375 0 .738 .07 1.09 .211s.668 .328 .949 .562c-.047 .235-.083 .492-.105 .773-.024 .281-.035 .562-.035 .844 0 .517 .011 .996 .035 1.441 .023 .446 .058 .926 .105 1.441-.376 .657-.809 1.242-1.301 1.758-.492 .517-.833 1.172-1.02 1.969-.703 0-1.325 .152-1.863 .457-.54 .306-1.044 .633-1.512 .984-.469 .352-.938 .68-1.406 .984-.469 .306-.984 .457-1.547 .457-.703 0-1.195-.105-1.477-.316s-.492-.433-.633-.668l-.387-.633c-.118-.187-.364-.257-.738-.211-.095-.608-.281-1.184-.562-1.723-.281-.538-.575-1.065-.879-1.582-.306-.516-.61-1.043-.914-1.582-.306-.538-.527-1.09-.668-1.652-.281-1.219-.399-2.484-.352-3.797 .046-1.312-.165-2.577-.633-3.797 .093-.656 .164-1.324 .211-2.004 .046-.679 .07-1.347 .07-2.004 0-1.312-.035-2.612-.105-3.902-.07-1.289-.13-2.612-.176-3.973-.329-.422-.527-.902-.598-1.441-.07-.538-.13-1.065-.176-1.582-.141-.141-.293-.281-.457-.422-.165-.141-.271-.327-.316-.562-.376-.094-.657-.141-.844-.141-.657 0-1.208 .152-1.652 .457-.446 .306-.856 .457-1.23 .457-.376 0-.728-.046-1.055-.141-.329-.094-.657-.141-.984-.141-.281 0-.434 .06-.457 .176-.024 .117-.13 .223-.316 .316-.141 .095-.469 .188-.984 .281-.517 .095-1.09 .176-1.723 .246s-1.243 .13-1.828 .176c-.587 .047-.974 .07-1.16 .07-.749 0-1.324-.151-1.723-.457-.397-.305-.879-.644-1.441-1.02 .095-.281 .141-.468 .141-.562 0-.468-.141-.854-.422-1.16-.281-.305-.422-.573-.422-.809 0-.516 .2-.914 .598-1.195 .399-.281 .622-.727 .668-1.336 1.079-.468 2.18-.819 3.305-1.055 1.125-.234 2.273-.422 3.445-.562 1.171-.141 2.331-.305 3.48-.492 1.148-.187 2.285-.492 3.41-.914 .327 .047 .644 .082 .949 .105 .304 .024 .621 .035 .949 .035 1.406 0 2.8-.151 4.184-.457 1.382-.305 2.8-.457 4.254-.457 .375 0 .749 .024 1.125 .07 .375 .047 .749 .117 1.125 .211 1.874-.281 3.737-.586 5.59-.914 1.851-.327 3.762-.608 5.73-.844 .937-.094 1.863-.176 2.777-.246s1.839-.176 2.777-.316c.327-.046 .573-.129 .738-.246 .164-.116 .246-.362 .246-.738 .422 .188 .89 .281 1.406 .281 .796 0 1.57-.141 2.32-.422 .749-.281 1.522-.422 2.32-.422 .187 0 .352 .012 .492 .035 .141 .024 .281 .035 .422 .035 .327 0 .503-.151 .527-.457 .023-.305 .246-.503 .668-.598 .327-.094 .796-.164 1.406-.211 .608-.046 1.253-.105 1.934-.176 .679-.07 1.312-.164 1.898-.281 .585-.116 1.02-.292 1.301-.527l.492-.773c.844 .047 1.465 .411 1.863 1.09 .397 .68 .621 1.418 .668 2.215 .187 .188 .457 .271 .809 .246 .352-.023 .668-.035 .949-.035h.216z"/><path d="M271.402 101.275c-.235 .376-.517 .715-.844 1.02-.328 .306-.633 .622-.914 .949-.328 .141-.692 .211-1.09 .211-.398 0-.773-.011-1.125-.035-.352-.023-.68-.023-.984 0-.306 .024-.552 .13-.738 .316-.376-.094-.657-.27-.844-.527-.188-.257-.517-.41-.984-.457-.188-.046-.376-.046-.562 0-.703-.797-1.348-1.641-1.934-2.531-.587-.89-1.137-1.733-1.652-2.531-.047-1.733-.188-3.491-.422-5.273-.047-.422-.118-.844-.211-1.266-.095-.422-.165-.819-.211-1.195 0-.468 .035-.925 .105-1.371 .07-.445 .128-.854 .176-1.23 .187-1.359 .397-2.695 .633-4.008 .234-1.312 .445-2.647 .633-4.008 .187-1.219 .281-2.496 .281-3.832s-.211-2.59-.633-3.762l-.07-.352c.093-.375 .199-.691 .316-.949 .116-.257 .199-.551 .246-.879 .093-.516-.024-.89-.352-1.125 .141-.375 .375-.621 .703-.738 .327-.116 .515-.387 .562-.809 .046-.187 .046-.375 0-.562 .375-.141 .762-.27 1.16-.387 .397-.116 .784-.129 1.16-.035 .608 .095 1.148 .293 1.617 .598 .468 .306 .914 .645 1.336 1.02 .749 2.25 1.055 4.63 .914 7.137-.141 2.508-.376 5.027-.703 7.559-.328 2.531-.539 5.004-.633 7.418-.095 2.415 .281 4.652 1.125 6.715l.141 .07c.234 .047 .422-.035 .562-.246s.327-.292 .562-.246c.187 .095 .305 .141 .352 .141 .187 .938 .492 1.828 .914 2.672s.891 1.684 1.408 2.528z"/><path d="M324.347 64.712c-.095 .562-.223 1.044-.387 1.441-.165 .398-.2 .926-.105 1.582-.469 .047-.833 .2-1.09 .457-.258 .258-.469 .552-.633 .879-.165 .328-.328 .668-.492 1.02-.165 .352-.363 .668-.598 .949 .375 1.688 .586 3.399 .633 5.133 .046 1.734 .164 3.445 .352 5.133 .234 2.156 .598 4.278 1.09 6.363 .492 2.086 .738 4.208 .738 6.363 0 .657-.012 1.266-.035 1.828-.024 .562-.035 1.149-.035 1.758 0 .376 .011 .763 .035 1.16 .023 .398 .035 .785 .035 1.16 0 1.36-.176 2.719-.527 4.078-.352 1.36-.622 2.719-.809 4.078-.562 .517-1.044 1.079-1.441 1.688-.398 .609-.809 1.171-1.23 1.688-.422 .516-.914 .973-1.477 1.371-.562 .397-1.266 .668-2.109 .809-.141 .468-.411 .819-.809 1.055-.398 .234-.738 .562-1.02 .984h-.141c-1.172 0-2.18-.165-3.023-.492-.844-.328-1.629-.703-2.355-1.125-.728-.422-1.466-.868-2.215-1.336-.75-.469-1.617-.844-2.602-1.125-1.312-1.078-2.508-2.261-3.586-3.551-1.079-1.289-2.297-2.449-3.656-3.48-.328-.938-.763-1.711-1.301-2.32-.539-.608-1.066-1.312-1.582-2.109-.235-.327-.411-.633-.527-.914-.117-.281-.271-.608-.457-.984-.141-.375-.363-.633-.668-.773-.306-.141-.574-.305-.809-.492-.376-1.452-.914-2.788-1.617-4.008-.703-1.219-1.523-2.391-2.461-3.516-.281 .517-.504 1.066-.668 1.652-.165 .587-.316 1.172-.457 1.758-.141 .587-.316 1.172-.527 1.758-.211 .587-.481 1.114-.809 1.582v.211c0 .235 .094 .376 .281 .422 .187 .047 .281 .188 .281 .422l-.035 .141-.035 .141c-.235 .188-.411 .422-.527 .703-.117 .281-.363 .446-.738 .492 .046 .235 .07 .469 .07 .703v.633c0 1.36-.152 2.719-.457 4.078-.306 1.36-.457 2.742-.457 4.148v.914c0 .328 .023 .633 .07 .914 .094 .281 .234 .562 .422 .844 .187 .281 .281 .538 .281 .773 0 .327-.141 .633-.422 .914 .327 .234 .703 .492 1.125 .773s.809 .598 1.16 .949 .644 .727 .879 1.125c.234 .397 .352 .832 .352 1.301 0 .797-.258 1.359-.773 1.688-.517 .327-1.137 .586-1.863 .773-.728 .187-1.477 .362-2.25 .527-.773 .164-1.418 .457-1.934 .879h-.211c-.562 0-.984-.165-1.266-.492-.281-.328-.703-.492-1.266-.492-.89-1.453-1.5-3.083-1.828-4.887-.327-1.805-.492-3.527-.492-5.168 0-2.015 .176-4.031 .527-6.047 .352-2.015 .773-4.008 1.266-5.977s1.03-3.926 1.617-5.871c.586-1.944 1.136-3.902 1.652-5.871l.07-.211c0-.234-.06-.397-.176-.492-.117-.094-.176-.234-.176-.422 0-.094 .023-.141 .07-.141 .141-.468 .292-.914 .457-1.336 .164-.422 .292-.89 .387-1.406 .281-1.312 .48-2.66 .598-4.043 .116-1.382 .187-2.753 .211-4.113 .023-1.359 .07-2.73 .141-4.113 .07-1.382 .222-2.753 .457-4.113 .375-.375 .727-.773 1.055-1.195 .327-.422 .749-.797 1.266-1.125 .938 .047 1.874 .188 2.812 .422 .938 .235 1.828 .609 2.672 1.125 .562 2.016 .949 4.032 1.16 6.047 .211 2.016 .573 4.032 1.09 6.047v.211c0 .235 .129 .341 .387 .316 .257-.023 .457 .06 .598 .246-.095 .141-.152 .306-.176 .492-.024 .188-.035 .376-.035 .562v1.195c.094 .376 .211 .773 .352 1.195s.445 .68 .914 .773c.234 1.501 .586 2.883 1.055 4.148 .468 1.266 1.008 2.485 1.617 3.656 .608 1.172 1.266 2.332 1.969 3.48 .703 1.149 1.43 2.355 2.18 3.621 1.171 .891 2.18 1.91 3.023 3.059 .844 1.149 1.698 2.25 2.566 3.305 .867 1.055 1.852 1.98 2.953 2.777 1.101 .798 2.542 1.29 4.324 1.477 .234-.187 .397-.445 .492-.773l.352-.984c.141-.327 .292-.621 .457-.879 .164-.257 .41-.457 .738-.598 .094-1.312 .199-2.647 .316-4.008 .116-1.359 .41-2.647 .879-3.867-.235-.422-.352-.938-.352-1.547 0-.468 .035-.914 .105-1.336s.105-.844 .105-1.266c0-.89-.188-1.617-.562-2.18 0-.327 .023-.668 .07-1.02 .046-.352 .187-.691 .422-1.02-.376-.938-.668-1.922-.879-2.953-.211-1.03-.316-2.085-.316-3.164 0-.608 .07-1.241 .211-1.898-.281-.703-.469-1.522-.562-2.461l-.281-2.883c-.095-.984-.235-1.898-.422-2.742-.188-.844-.539-1.522-1.055-2.039 .281-.422 .422-.914 .422-1.477 0-.938-.141-1.828-.422-2.672s-.422-1.733-.422-2.672c0-.656 .141-1.312 .422-1.969 1.03 .047 2.05 .152 3.059 .316 1.008 .165 2.004 .246 2.988 .246 .281 .376 .608 .68 .984 .914 .375 .235 .773 .457 1.195 .668s.832 .434 1.23 .668c.4 .238 .716 .565 .951 .987z"/><path d="M404.644 72.025c-.141 .422-.411 .715-.809 .879-.398 .165-.809 .293-1.23 .387-.422 .095-.809 .246-1.16 .457s-.574 .552-.668 1.02l-.141 .07c-.188 0-.316-.059-.387-.176-.07-.116-.13-.234-.176-.352-.047-.116-.105-.234-.176-.352-.07-.116-.176-.176-.316-.176-.517 0-1.02 .047-1.512 .141-.492 .095-.974 .141-1.441 .141-.703 0-1.336-.094-1.898-.281-.328 .095-.504 .306-.527 .633-.024 .328-.176 .539-.457 .633-.235 .095-.517 .13-.844 .105-.328-.023-.657 .012-.984 .105l-2.25 .562c-.75 .188-1.501 .281-2.25 .281-.422 0-.728-.023-.914-.07-.703 .562-1.501 .974-2.391 1.23-.891 .258-1.817 .492-2.777 .703-.961 .211-1.898 .481-2.812 .809-.914 .328-1.723 .844-2.426 1.547-.376-.094-.703-.141-.984-.141-.609 0-1.149 .13-1.617 .387-.469 .258-.961 .504-1.477 .738-.235 .095-.469 .141-.703 .141-.235 0-.492 .047-.773 .141-.281 .095-.457 .246-.527 .457s-.223 .411-.457 .598c0 1.688 .164 3.364 .492 5.027 .327 1.664 .492 3.34 .492 5.027v.281c.094 .798 .352 1.536 .773 2.215 .422 .68 .633 1.371 .633 2.074 0 .235-.047 .492-.141 .773 1.219 .281 2.027 .903 2.426 1.863 .397 .961 .727 1.993 .984 3.094 .257 1.102 .608 2.121 1.055 3.059 .445 .938 1.324 1.523 2.637 1.758 .094 .469 .164 .949 .211 1.441 .046 .492 .07 .974 .07 1.441 0 .656-.07 1.301-.211 1.934s-.422 1.206-.844 1.723c-.703 .046-1.22 .07-1.547 .07-.328 0-.82 .141-1.477 .422-.938-.562-1.77-1.207-2.496-1.934-.728-.728-1.406-1.501-2.039-2.32s-1.255-1.663-1.863-2.531c-.609-.867-1.266-1.698-1.969-2.496-2.438 .609-4.934 1.02-7.488 1.23-2.556 .211-5.098 .316-7.629 .316-.095 .095-.235 .141-.422 .141-.188 0-.363 .012-.527 .035-.165 .024-.306 .07-.422 .141-.117 .07-.152 .2-.105 .387-.328-.187-.692-.316-1.09-.387-.398-.07-.763-.105-1.09-.105-.235 0-.469 .012-.703 .035-.235 .024-.469 .105-.703 .246-1.782-.327-3.505-.784-5.168-1.371-1.664-.586-3.364-1.065-5.098-1.441 0-.375-.095-.644-.281-.809-.188-.164-.352-.41-.492-.738-1.969-1.219-3.621-2.695-4.957-4.43-1.336-1.733-1.887-3.843-1.652-6.328l-.492-.984c0-.749 .165-1.289 .492-1.617-.187-.327-.516-.656-.984-.984 .422-.656 .798-1.336 1.125-2.039 .328-.703 .562-1.452 .703-2.25 .047-.234 .07-.445 .07-.633 0-.187 .047-.397 .141-.633 .095-.281 .223-.598 .387-.949s.316-.668 .457-.949c.749-1.593 1.582-3.129 2.496-4.605s2.074-2.753 3.48-3.832c.094-.797 .327-1.465 .703-2.004 .375-.538 .784-1.03 1.23-1.477 .445-.445 .89-.902 1.336-1.371 .445-.468 .784-1.03 1.02-1.688 .938-.797 1.887-1.57 2.848-2.32 .96-.749 1.769-1.641 2.426-2.672 .844-.281 1.641-.644 2.391-1.09 .749-.445 1.382-1.02 1.898-1.723 1.125-.094 2.238-.305 3.34-.633 1.101-.327 2.261-.492 3.48-.492 .516 0 1.136 .105 1.863 .316 .727 .211 1.276 .574 1.652 1.09 .046 .095 .07 .211 .07 .352l.07 .352c.046 .095 .105 .176 .176 .246s.199 .082 .387 .035c0 1.031-.117 2.074-.352 3.129-.235 1.055-.844 1.863-1.828 2.426-.609-.187-1.266-.281-1.969-.281-.938 0-1.793 .176-2.566 .527s-1.523 .75-2.25 1.195c-.728 .446-1.466 .891-2.215 1.336-.75 .446-1.547 .763-2.391 .949-.095 .376-.176 .715-.246 1.02-.07 .306-.06 .645 .035 1.02-.235 0-.411-.035-.527-.105-.117-.07-.293-.105-.527-.105-.328 0-.552 .188-.668 .562-.117 .376-.223 .68-.316 .914-.891 .376-1.629 .903-2.215 1.582-.587 .68-1.125 1.406-1.617 2.18s-1.02 1.512-1.582 2.215-1.266 1.242-2.109 1.617c-.376 1.501-.738 2.978-1.09 4.43-.352 1.453-.763 2.907-1.23 4.359 .141 .562 .211 1.149 .211 1.758 0 .75-.07 1.431-.211 2.039 .234 .376 .468 .82 .703 1.336l.844 1.617c.281 .562 .573 1.079 .879 1.547 .305 .469 .598 .82 .879 1.055 .516 .376 1.312 .715 2.391 1.02 1.078 .306 2.039 .809 2.883 1.512l.352-.035 .352-.035c.562 0 1.171 .141 1.828 .422 .656 .281 1.078 .422 1.266 .422 2.625 0 5.484-.176 8.578-.527s5.952-.784 8.578-1.301c.094-.468 .141-.867 .141-1.195 0-.608-.095-1.206-.281-1.793-.188-.586-.492-1.09-.914-1.512 0-.703 .011-1.406 .035-2.109 .023-.703 .035-1.406 .035-2.109 0-1.171-.047-2.414-.141-3.727-.095-1.312-.328-2.531-.703-3.656h-.141c-.609 0-1.16 .152-1.652 .457-.492 .306-.996 .457-1.512 .457-.281 0-.517-.07-.703-.211-.562 .657-1.242 1.149-2.039 1.477-.798 .328-1.642 .622-2.531 .879-.891 .258-1.77 .527-2.637 .809-.868 .281-1.652 .68-2.355 1.195-.376-.141-.728-.211-1.055-.211-.328 0-.645 .024-.949 .07-.306 .047-.645 .095-1.02 .141-.984-.844-1.477-1.898-1.477-3.164 0-.656 .105-1.301 .316-1.934s.503-1.23 .879-1.793c.234-.141 .516-.222 .844-.246 .327-.023 .656-.07 .984-.141 .327-.07 .598-.176 .809-.316s.34-.397 .387-.773c.141 .141 .257 .211 .352 .211 .094 0 .187-.023 .281-.07 .094-.046 .187-.07 .281-.07 .094 0 .176 .047 .246 .141 .07 .095 .105 .188 .105 .281 2.015-1.078 4.078-1.992 6.188-2.742 2.109-.749 4.254-1.43 6.434-2.039 2.18-.608 4.37-1.184 6.574-1.723 2.203-.538 4.383-1.136 6.539-1.793 .327-.281 .679-.492 1.055-.633 .375-.141 .703-.352 .984-.633 .327 .188 .727 .281 1.195 .281 .656 0 1.371-.129 2.145-.387 .773-.257 1.417-.573 1.934-.949 .187 .047 .352 .07 .492 .07h.492c.938 0 1.816-.141 2.637-.422 .819-.281 1.628-.656 2.426-1.125h.352c1.452 0 2.894-.164 4.324-.492 1.43-.327 2.894-.492 4.395-.492 1.922 0 3.609 .492 5.062 1.477v.844c0 .376 .011 .715 .035 1.02 .02 .3 .102 .617 .242 .944z"/><path d="M223.629 185.306c0 .469-.024 .82-.07 1.055-.235 .095-.422 .223-.562 .387-.141 .165-.376 .223-.703 .176-.095 .703-.329 1.289-.703 1.758-.376 .468-.763 .902-1.16 1.301-.399 .397-.786 .819-1.16 1.266-.376 .445-.61 1.02-.703 1.723-.703 .375-1.396 .879-2.074 1.512-.68 .633-1.278 1.065-1.793 1.301-.376 .187-.773 .34-1.195 .457-.422 .116-.844 .27-1.266 .457-1.36 .608-2.754 1.241-4.184 1.898-1.431 .656-2.918 .984-4.465 .984h-.492c-.188 .187-.422 .316-.703 .387s-.562 .129-.844 .176c-.281 .046-.562 .116-.844 .211-.281 .094-.492 .234-.633 .422-.517-.188-1.079-.281-1.688-.281h-.492c-.798 .187-1.547 .327-2.25 .422-.703 .094-1.454 .141-2.25 .141-1.406 0-2.812-.095-4.219-.281-1.406-.188-2.812-.352-4.219-.492-.891-.703-1.617-1.582-2.18-2.637s-.844-2.169-.844-3.34c0-.891 .187-1.723 .562-2.496 .375-.773 .867-1.466 1.477-2.074h.211c.422 0 .854-.095 1.301-.281 .445-.188 .879-.281 1.301-.281 .468 0 .854 .187 1.16 .562 .304 .375 .538 .819 .703 1.336 .164 .516 .269 1.043 .316 1.582 .046 .538 .07 .973 .07 1.301 .515 .234 1.065 .375 1.652 .422 .585 .046 1.183 .07 1.793 .07 .608 0 1.289-.035 2.039-.105 .749-.07 1.512-.188 2.285-.352 .773-.165 1.522-.363 2.25-.598 .726-.235 1.347-.539 1.863-.914 2.577-.235 4.852-.82 6.82-1.758 1.969-.938 4.054-2.039 6.258-3.305 .093-.516 .292-.925 .598-1.23 .304-.305 .457-.762 .457-1.371l-.035-.316-.035-.316c-.938-1.171-1.911-2.203-2.918-3.094-1.009-.89-2.31-1.477-3.902-1.758-.188-.422-.492-.738-.914-.949s-.868-.41-1.336-.598c-.469-.187-.914-.387-1.336-.598s-.728-.573-.914-1.09c-1.266-.234-2.566-.527-3.902-.879s-2.473-.995-3.41-1.934c-.75-.046-1.466-.199-2.145-.457-.68-.257-1.348-.516-2.004-.773-.657-.257-1.336-.492-2.039-.703s-1.431-.316-2.18-.316c-.188-.327-.446-.586-.773-.773-.329-.187-.692-.352-1.09-.492-.399-.141-.773-.292-1.125-.457-.352-.164-.622-.41-.809-.738-.188 .047-.329 .141-.422 .281-.095 .141-.258 .211-.492 .211h-.281c-.095-.281-.281-.48-.562-.598-.281-.116-.446-.362-.492-.738-.844-.046-1.606-.211-2.285-.492-.68-.281-1.313-.598-1.898-.949-.587-.352-1.185-.691-1.793-1.02-.61-.327-1.29-.586-2.039-.773-.469-.375-.903-.784-1.301-1.23-.399-.445-.903-.668-1.512-.668-.141 0-.399 .047-.773 .141-.095-.844-.446-1.441-1.055-1.793-.61-.352-1.266-.668-1.969-.949-.469-1.219-1.102-2.296-1.898-3.234-.796-.938-1.663-1.804-2.602-2.602 .095-.281 .141-.492 .141-.633 0-.468-.116-.879-.352-1.23-.234-.352-.492-.644-.773-.879-.656-2.109-.984-4.172-.984-6.188 0-2.812 .622-5.425 1.863-7.84 1.243-2.414 3.199-4.229 5.871-5.449 .046-.375 .176-.703 .387-.984s.339-.608 .387-.984c.422 0 .749-.094 .984-.281 .234-.187 .457-.387 .668-.598s.433-.41 .668-.598c.234-.187 .538-.305 .914-.352 1.781-1.547 3.679-2.801 5.695-3.762 2.015-.96 4.078-1.957 6.188-2.988 .422-.187 .773-.538 1.055-1.055h.422c.468 0 .832-.105 1.09-.316 .257-.211 .644-.269 1.16-.176 .187-.281 .433-.468 .738-.562 .304-.093 .608-.176 .914-.246 .304-.07 .598-.176 .879-.316s.468-.352 .562-.633h.492c.796 0 1.57-.128 2.32-.387 .749-.257 1.5-.55 2.25-.879h.492c.937 0 1.816-.176 2.637-.527 .819-.352 1.698-.598 2.637-.738 .375-.093 .749-.116 1.125-.07 .375 .047 .749 .07 1.125 .07 .234 0 .515-.023 .844-.07 .327-.046 .562-.187 .703-.422h.141c.281 0 .445 .095 .492 .281 .046 .188 .187 .281 .422 .281 .327 0 .656-.046 .984-.141 .327-.093 .656-.141 .984-.141 1.406 0 2.8 .141 4.184 .422 1.382 .281 2.753 .54 4.113 .773 .093 .562 .339 .961 .738 1.195 .397 .235 .832 .446 1.301 .633v.281c0 .376 .093 .68 .281 .914-.188 .657-.517 1.149-.984 1.477-.469 .329-.984 .61-1.547 .844 .234 .188 .375 .446 .422 .773 .046 .329 .07 .633 .07 .914v.844l-.352-.07c-.75 0-1.125 .352-1.125 1.055-.61-.375-1.278-.608-2.004-.703-.728-.093-1.441-.141-2.145-.141-.938 0-1.923 .035-2.953 .105-1.032 .07-2.039 .06-3.023-.035-.376 .469-.844 .809-1.406 1.02s-1.125 .316-1.688 .316c-.61 0-1.195-.129-1.758-.387-.562-.257-.961-.644-1.195-1.16-.235-.093-.446-.141-.633-.141h-.633c-.75 0-1.489 .083-2.215 .246-.728 .165-1.466 .352-2.215 .562-.75 .211-1.489 .422-2.215 .633-.728 .211-1.466 .341-2.215 .387-.281 .376-.657 .633-1.125 .773-.469 .141-.844 .398-1.125 .773-.984 .188-1.875 .504-2.672 .949-.798 .446-1.571 .926-2.32 1.441l-2.18 1.477c-.703 .469-1.501 .868-2.391 1.195-.657 .703-1.266 1.266-1.828 1.688s-1.29 .798-2.18 1.125c-.562 .188-.879 .469-.949 .844-.07 .376-.271 .75-.598 1.125-.281 .328-.622 .574-1.02 .738-.399 .165-.738 .434-1.02 .809-.235 .328-.411 .715-.527 1.16-.118 .446-.246 .879-.387 1.301s-.306 .833-.492 1.23c-.188 .398-.469 .738-.844 1.02 0 .188-.012 .376-.035 .562-.024 .188-.035 .352-.035 .492 0 .657 .081 1.325 .246 2.004 .164 .68 .269 1.348 .316 2.004 .937 1.642 2.039 3.129 3.305 4.465s2.625 2.566 4.078 3.691c1.452 1.125 2.964 2.18 4.535 3.164 1.57 .984 3.129 1.945 4.676 2.883 .562-.046 1.078 .012 1.547 .176 .468 .165 .96 .271 1.477 .316 .562 .422 1.218 .75 1.969 .984l2.25 .703c.749 .235 1.477 .504 2.18 .809 .703 .306 1.289 .715 1.758 1.23 .234 .047 .445 .105 .633 .176 .187 .07 .397 .105 .633 .105 .281 0 .445-.094 .492-.281 2.109 .798 4.171 1.677 6.188 2.637 2.015 .961 4.148 1.699 6.398 2.215 .89 .75 1.874 1.406 2.953 1.969 1.078 .562 2.155 1.137 3.234 1.723 1.078 .587 2.109 1.22 3.094 1.898 .984 .68 1.851 1.488 2.602 2.426 .093 .891 .292 1.747 .598 2.566 .306 .818 .459 1.696 .459 2.634z"/><path d="M273.965 142.697c-.188 .609-.492 1.172-.914 1.688l-1.195 1.477c-.376 .469-.692 .974-.949 1.512-.258 .539-.341 1.16-.246 1.863l-.352-.035-.352-.035c-.75 0-1.325 .176-1.723 .527-.399 .352-.926 .645-1.582 .879-.095-.281-.211-.551-.352-.809-.141-.257-.352-.433-.633-.527-1.125 .235-2.25 .411-3.375 .527-1.125 .117-2.25 .271-3.375 .457-.517 .095-1.032 .223-1.547 .387-.517 .165-1.055 .316-1.617 .457-.281 .095-.587 .13-.914 .105-.329-.023-.657-.011-.984 .035-1.125 .047-2.345 .13-3.656 .246-1.313 .117-2.485 .481-3.516 1.09-.469-.094-.961-.164-1.477-.211-.517-.046-1.032-.07-1.547-.07-1.125 0-2.355 .105-3.691 .316s-2.521 .622-3.551 1.23c-.235-.094-.481-.164-.738-.211-.258-.046-.552-.07-.879-.07l-.211 .035-.211 .035c-.047 .422 .011 .833 .176 1.23 .164 .398 .457 .715 .879 .949-.188 .517-.281 1.079-.281 1.688 0 .798 .058 1.594 .176 2.391 .116 .798 .176 1.594 .176 2.391 0 .891-.118 1.594-.352 2.109 .468 1.406 .703 2.907 .703 4.5 0 .562-.035 1.114-.105 1.652-.07 .539-.105 1.114-.105 1.723 0 .517 .187 .926 .562 1.23 .375 .306 .562 .715 .562 1.23 0 .188-.047 .376-.141 .562 .656-.141 1.289-.34 1.898-.598 .608-.257 1.241-.387 1.898-.387 .375 0 .738 .07 1.09 .211s.668 .328 .949 .562c-.047 .235-.083 .492-.105 .773-.024 .281-.035 .562-.035 .844 0 .517 .011 .996 .035 1.441 .023 .446 .058 .926 .105 1.441-.376 .657-.809 1.242-1.301 1.758-.492 .517-.833 1.172-1.02 1.969-.703 0-1.325 .152-1.863 .457-.54 .306-1.044 .633-1.512 .984-.469 .352-.938 .68-1.406 .984-.469 .306-.984 .457-1.547 .457-.703 0-1.195-.105-1.477-.316s-.492-.433-.633-.668l-.387-.633c-.118-.187-.364-.257-.738-.211-.095-.608-.281-1.184-.562-1.723-.281-.538-.575-1.065-.879-1.582-.306-.516-.61-1.043-.914-1.582-.306-.538-.527-1.09-.668-1.652-.281-1.219-.399-2.484-.352-3.797 .046-1.312-.165-2.577-.633-3.797 .093-.656 .164-1.324 .211-2.004 .046-.679 .07-1.347 .07-2.004 0-1.312-.035-2.612-.105-3.902-.07-1.289-.13-2.612-.176-3.973-.329-.422-.527-.902-.598-1.441-.07-.538-.13-1.065-.176-1.582-.141-.141-.293-.281-.457-.422-.165-.141-.271-.327-.316-.562-.376-.094-.657-.141-.844-.141-.657 0-1.208 .152-1.652 .457-.446 .306-.856 .457-1.23 .457-.376 0-.728-.046-1.055-.141-.329-.094-.657-.141-.984-.141-.281 0-.434 .06-.457 .176-.024 .117-.13 .223-.316 .316-.141 .095-.469 .188-.984 .281-.517 .095-1.09 .176-1.723 .246s-1.243 .13-1.828 .176c-.587 .047-.974 .07-1.16 .07-.749 0-1.324-.151-1.723-.457-.397-.305-.879-.644-1.441-1.02 .095-.281 .141-.468 .141-.562 0-.468-.141-.854-.422-1.16-.281-.305-.422-.573-.422-.809 0-.516 .2-.914 .598-1.195 .399-.281 .622-.727 .668-1.336 1.079-.468 2.18-.819 3.305-1.055 1.125-.234 2.273-.422 3.445-.562 1.171-.141 2.331-.305 3.48-.492 1.148-.187 2.285-.492 3.41-.914 .327 .047 .644 .082 .949 .105 .304 .024 .621 .035 .949 .035 1.406 0 2.8-.151 4.184-.457 1.382-.305 2.8-.457 4.254-.457 .375 0 .749 .024 1.125 .07 .375 .047 .749 .117 1.125 .211 1.874-.281 3.737-.586 5.59-.914 1.851-.327 3.762-.608 5.73-.844 .937-.094 1.863-.176 2.777-.246s1.839-.176 2.777-.316c.327-.046 .573-.129 .738-.246 .164-.116 .246-.362 .246-.738 .422 .188 .89 .281 1.406 .281 .796 0 1.57-.141 2.32-.422 .749-.281 1.522-.422 2.32-.422 .187 0 .352 .012 .492 .035 .141 .024 .281 .035 .422 .035 .327 0 .503-.151 .527-.457 .023-.305 .246-.503 .668-.598 .327-.094 .796-.164 1.406-.211 .608-.046 1.253-.105 1.934-.176 .679-.07 1.312-.164 1.898-.281 .585-.116 1.02-.292 1.301-.527l.492-.773c.844 .047 1.464 .411 1.863 1.09 .397 .68 .621 1.418 .668 2.215 .187 .188 .457 .271 .809 .246 .352-.023 .668-.035 .949-.035h.216z"/><path d="M314.254 182.775c-.141 .657-.434 1.185-.879 1.582-.446 .398-.974 .715-1.582 .949-.609 .235-1.23 .387-1.863 .457s-1.207 .105-1.723 .105c-.235 0-.457-.011-.668-.035-.211-.023-.434-.035-.668-.035-.235 0-.352 .117-.352 .352 0 .235-.117 .398-.352 .492-.235-.094-.469-.164-.703-.211-.235-.046-.469-.07-.703-.07-.328 0-.645 .024-.949 .07-.306 .047-.598 .07-.879 .07-.376 0-.645-.046-.809-.141-.165-.094-.306-.199-.422-.316-.117-.116-.235-.246-.352-.387-.117-.141-.293-.257-.527-.352-.328-.141-.598-.164-.809-.07-.211 .095-.527-.046-.949-.422-.562-.468-1.044-1.043-1.441-1.723-.398-.679-.785-1.395-1.16-2.145-.376-.749-.773-1.5-1.195-2.25-.422-.749-.914-1.406-1.477-1.969h-.562c-.844 0-1.431 .352-1.758 1.055-.235-.141-.469-.316-.703-.527-.235-.211-.492-.387-.773-.527-1.079 .328-2.204 .609-3.375 .844-1.172 .235-2.345 .352-3.516 .352h-.984c-.281 0-.587-.046-.914-.141-.469 .188-.891 .411-1.266 .668-.376 .258-.798 .387-1.266 .387-.281 0-.61-.094-.984-.281-.281 0-.411 .117-.387 .352 .023 .235-.13 .352-.457 .352h-.633c-.657 0-1.301 .024-1.934 .07-.633 .047-1.278 .07-1.934 .07-.891 0-1.805-.116-2.742-.352-.235 .141-.492 .211-.773 .211-.188 .095-.329 .246-.422 .457-.095 .211-.188 .398-.281 .562-.095 .165-.223 .306-.387 .422-.165 .117-.387 .152-.668 .105-.095 .562-.329 1.009-.703 1.336-.376 .328-.562 .82-.562 1.477-.517 .281-.938 .633-1.266 1.055-.329 .422-.657 .868-.984 1.336-.329 .469-.668 .914-1.02 1.336s-.786 .749-1.301 .984c-.234 .281-.304 .727-.211 1.336-.515 .422-1.148 .797-1.898 1.125-.749 .327-1.452 .492-2.109 .492-1.359 0-2.296-.728-2.812-2.18 0-.469 .035-.974 .105-1.512s.176-1.055 .316-1.547 .352-.938 .633-1.336c.281-.397 .68-.691 1.195-.879 0-.422-.141-.714-.422-.879-.281-.164-.397-.457-.352-.879 1.266-.608 2.368-1.406 3.305-2.391 .938-.984 1.793-2.027 2.566-3.129 .773-1.101 1.558-2.215 2.355-3.34 .796-1.125 1.688-2.133 2.672-3.023v-1.477c1.406-1.5 2.32-3.188 2.742-5.062 .515-.094 .854-.327 1.02-.703 .164-.375 .246-.819 .246-1.336 .234 0 .387-.105 .457-.316s.269-.27 .598-.176c.422-1.125 .89-2.155 1.406-3.094 .515-.938 1.03-1.887 1.547-2.848 .515-.96 .972-1.957 1.371-2.988 .397-1.03 .691-2.18 .879-3.445 .656-.046 1.02-.362 1.09-.949 .07-.586 .151-1.113 .246-1.582 .703-.656 1.23-1.43 1.582-2.32 .352-.89 .668-1.816 .949-2.777 .281-.96 .598-1.922 .949-2.883 .352-.96 .854-1.816 1.512-2.566v-.211c0-.234-.095-.387-.281-.457-.188-.07-.281-.222-.281-.457l.07-.141c.562-.234 .984-.621 1.266-1.16 .281-.538 .703-.925 1.266-1.16 .984 .798 1.852 1.277 2.602 1.441 .749 .165 1.733 .293 2.953 .387 .608 .657 .949 1.441 1.02 2.355s.222 1.817 .457 2.707c.375 1.501 .784 2.965 1.23 4.395 .445 1.431 .784 2.895 1.02 4.395 .141 .891 .397 1.734 .773 2.531 .375 .798 .633 1.617 .773 2.461 .094 .657 .094 1.396 0 2.215-.095 .82 0 1.536 .281 2.145l.492 1.125c.234 .517 .433 1.055 .598 1.617 .164 .562 .316 1.125 .457 1.688 .375 1.406 .714 2.918 1.02 4.535 .305 1.617 .784 3.083 1.441 4.395 .234 .469 .598 .798 1.09 .984 .492 .188 1.043 .316 1.652 .387 .608 .07 1.206 .095 1.793 .07 .586-.023 1.09-.035 1.512-.035h.703c.281 0 .562 .047 .844 .141 .187 .376 .281 .703 .281 .984 0 .562-.188 1.009-.562 1.336-.376 .328-.562 .703-.562 1.125 0 .235 .094 .492 .281 .773-.188-.046-.469-.07-.844-.07-1.079 0-2.134 .188-3.164 .562 .375 .798 .879 1.466 1.512 2.004 .633 .539 1.301 1.044 2.004 1.512 .468-.375 .96-.562 1.477-.562 .562 0 1.09 .13 1.582 .387 .492 .258 1.02 .387 1.582 .387 .422 0 .727-.07 .914-.211 .375 .422 .679 .855 .914 1.301 .234 .444 .538 .854 .914 1.229zM292.246 171.525c-.095-.797-.246-1.371-.457-1.723s-.387-.784-.527-1.301c-.188-.656-.316-1.359-.387-2.109-.07-.749-.176-1.477-.316-2.18-.328-1.593-.692-3.188-1.09-4.781-.398-1.593-.903-3.14-1.512-4.641 .187-.281 .281-.538 .281-.773v-.211c-.422-.468-.728-1.043-.914-1.723-.188-.679-.363-1.359-.527-2.039-.165-.679-.376-1.312-.633-1.898-.258-.586-.668-1.065-1.23-1.441-.141 .281-.211 .609-.211 .984 0 .328 .035 .633 .105 .914s.105 .587 .105 .914c-.469 .235-.809 .598-1.02 1.09s-.552 .879-1.02 1.16c-.376 1.501-.914 2.918-1.617 4.254s-1.441 2.661-2.215 3.973c-.773 1.312-1.512 2.637-2.215 3.973s-1.266 2.731-1.688 4.184c-.61 .422-1.02 .961-1.23 1.617-.211 .657-.316 1.312-.316 1.969 .422 .235 .902 .363 1.441 .387 .538 .024 1.065 .035 1.582 .035 .515 0 1.007 .047 1.477 .141 .468 .095 .89 .328 1.266 .703 .608-.187 1.276-.316 2.004-.387 .726-.07 1.324-.27 1.793-.598 .938 .328 1.944 .492 3.023 .492 .562 0 1.113-.046 1.652-.141 .538-.094 1.065-.211 1.582-.352 .422 .095 .749 .246 .984 .457 .234 .211 .586 .293 1.055 .246 .234-.187 .375-.387 .422-.598 .047-.211 .165-.41 .353-.597z"/><path d="M402.215 175.673c-.095 .703-.341 1.242-.738 1.617-.398 .376-.855 .728-1.371 1.055-.235-.046-.457-.081-.668-.105-.211-.023-.434-.035-.668-.035-1.453-.046-2.824 .141-4.113 .562-1.29 .422-2.613 .728-3.973 .914-.469 .095-.903 .13-1.301 .105-.398-.023-.809 .012-1.23 .105-1.501 .235-3.094 .422-4.781 .562s-3.375 .316-5.062 .527-3.34 .469-4.957 .773c-1.617 .306-3.129 .738-4.535 1.301-.141-.094-.281-.199-.422-.316-.141-.116-.306-.176-.492-.176-.469 0-.914 .07-1.336 .211s-.844 .188-1.266 .141c-.469 .281-.974 .481-1.512 .598-.539 .117-1.079 .211-1.617 .281-.539 .07-1.066 .176-1.582 .316-.517 .141-1.009 .398-1.477 .773-.376-.187-.833-.292-1.371-.316-.539-.023-.903-.199-1.09-.527-1.079 .517-2.215 .844-3.41 .984s-2.402 .188-3.621 .141c-.798-.046-1.712-.164-2.742-.352-1.031-.187-2.063-.457-3.094-.809-1.031-.352-1.993-.773-2.883-1.266-.891-.492-1.571-1.09-2.039-1.793-.328-.468-.562-.984-.703-1.547s-.469-.984-.984-1.266c.141-1.078 .305-2.133 .492-3.164 .187-1.03 .375-2.085 .562-3.164 .938-.797 1.828-1.641 2.672-2.531 .844-.89 1.641-1.828 2.391-2.812 .89-.422 1.723-.938 2.496-1.547 .773-.608 1.547-1.23 2.32-1.863s1.547-1.254 2.32-1.863c.773-.608 1.605-1.148 2.496-1.617 .141-.327 .34-.598 .598-.809 .257-.211 .527-.422 .809-.633s.538-.445 .773-.703c.234-.257 .397-.573 .492-.949 1.641-.984 3.069-2.226 4.289-3.727 1.219-1.5 2.015-3.188 2.391-5.062-.798-.656-1.699-1.09-2.707-1.301-1.009-.211-2.051-.362-3.129-.457-.938-.046-1.91-.046-2.918 0-1.009 .047-2.028 .024-3.059-.07-1.031 .328-2.099 .539-3.199 .633-1.102 .095-2.191 .176-3.27 .246-1.079 .07-2.145 .211-3.199 .422s-2.074 .598-3.059 1.16c-.188 0-.363-.023-.527-.07-.165-.046-.341-.07-.527-.07-1.501-.046-2.907 .246-4.219 .879-1.312 .633-2.602 1.255-3.867 1.863-.095 .188-.141 .328-.141 .422 0 .281 .059 .552 .176 .809 .116 .258 .176 .527 .176 .809l-.07 .141-.07 .141c-.047 .235-.105 .446-.176 .633l-.246 .633c-.517 1.501-.798 2.978-.844 4.43-.047 1.22-.047 2.415 0 3.586 .046 1.172 .046 2.367 0 3.586-.095 1.501-.328 2.907-.703 4.219 .234 1.125 .445 2.31 .633 3.551 .187 1.242 .422 2.473 .703 3.691 .281 1.22 .621 2.402 1.02 3.551 .397 1.149 .925 2.239 1.582 3.27-.047 .095-.024 .165 .07 .211 .094 .047 .187 .07 .281 .07h.562c.234 0 .327 .095 .281 .281 .094 .141 .164 .271 .211 .387 .046 .117 .141 .223 .281 .316 .094 .141 .094 .328 0 .562-.047 .938-.281 1.804-.703 2.602-.422 .797-.68 1.663-.773 2.602-.562 .141-1.079 .211-1.547 .211-.798-.047-1.501-.271-2.109-.668-.609-.398-1.172-.879-1.688-1.441-.517-.562-1.009-1.137-1.477-1.723-.469-.586-.984-1.09-1.547-1.512-.328-1.312-.645-2.766-.949-4.359-.306-1.593-.809-2.953-1.512-4.078 .187-.422 .281-.938 .281-1.547 .046-.938-.035-1.863-.246-2.777s-.271-1.839-.176-2.777c0-.516 .059-1.03 .176-1.547 .116-.516 .199-1.03 .246-1.547 .046-.797-.035-1.57-.246-2.32-.211-.749-.293-1.522-.246-2.32 .046-.375 .129-.738 .246-1.09 .116-.352 .292-.668 .527-.949-.235-.562-.306-1.101-.211-1.617 .046-.797 .141-1.547 .281-2.25s.234-1.406 .281-2.109c0-.375-.024-.738-.07-1.09-.047-.352-.117-.691-.211-1.02l-.633-.211c-.281 0-.552 .07-.809 .211-.258 .141-.481 .306-.668 .492-.188 .188-.352 .341-.492 .457-.141 .117-.281 .176-.422 .176l-.316-.035-.316-.035c-.095 0-.271 .095-.527 .281-.258 .188-.562 .387-.914 .598s-.692 .422-1.02 .633c-.328 .211-.587 .341-.773 .387-.517-.094-.926-.27-1.23-.527-.306-.257-.587-.516-.844-.773-.258-.257-.527-.492-.809-.703s-.633-.292-1.055-.246c-.141-.281-.222-.586-.246-.914-.023-.327-.011-.656 .035-.984v-1.125c.328-.608 .763-1.113 1.301-1.512 .538-.397 1.113-.738 1.723-1.02l1.828-.844c.608-.281 1.171-.633 1.688-1.055h.633c.844 .047 1.582-.116 2.215-.492 .633-.375 1.23-.809 1.793-1.301l1.723-1.512c.586-.516 1.23-.914 1.934-1.195 .516 .235 1.055 .434 1.617 .598 .562 .165 1.148 .271 1.758 .316 .608 0 1.241-.094 1.898-.281 .656-.187 1.171-.538 1.547-1.055 .234 .095 .433 .152 .598 .176 .164 .024 .362 .035 .598 .035 .703 .047 1.406-.059 2.109-.316 .703-.257 1.382-.573 2.039-.949 .938 .047 1.863-.011 2.777-.176 .914-.164 1.828-.34 2.742-.527 .914-.187 1.828-.362 2.742-.527 .914-.164 1.839-.222 2.777-.176 1.547 .047 3.069-.094 4.57-.422 1.5-.327 3.023-.445 4.57-.352 1.078 .047 2.145 .13 3.199 .246 1.055 .117 2.12 .152 3.199 .105 .608 .281 1.16 .527 1.652 .738s1.113 .271 1.863 .176c1.5 1.266 2.858 2.742 4.078 4.43v1.195c-.047 1.079-.235 2.134-.562 3.164-.328 1.031-.715 2.051-1.16 3.059-.446 1.009-.926 1.993-1.441 2.953-.517 .961-1.009 1.91-1.477 2.848-3.048 2.767-6.094 5.509-9.141 8.227-3.048 2.719-6.188 5.344-9.422 7.875-.095 .469-.223 .891-.387 1.266-.165 .376-.271 .773-.316 1.195 0 .235 .023 .422 .07 .562 .327 .095 .621 .271 .879 .527 .257 .258 .34 .598 .246 1.02h.633c.234 0 .352 .095 .352 .281l1.125 .07c1.781 .095 3.562 .047 5.344-.141 1.781-.187 3.574-.397 5.379-.633 1.804-.234 3.597-.457 5.379-.668 1.781-.211 3.562-.34 5.344-.387 .422-.141 .867-.257 1.336-.352 .468-.094 .89-.281 1.266-.562h.211c.327 0 .573 .095 .738 .281 .164 .188 .41 .306 .738 .352 .234 0 .48-.046 .738-.141 .257-.094 .527-.164 .809-.211 .656-.187 1.347-.305 2.074-.352 .727-.046 1.441-.116 2.145-.211 2.718-.234 5.414-.387 8.086-.457s5.344-.41 8.016-1.02c.234 .328 .562 .552 .984 .668 .422 .117 .867 .235 1.336 .352 .468 .117 .902 .246 1.301 .387 .397 .138 .668 .419 .809 .841z"/><path d="M441.379 142.697c-.188 .609-.492 1.172-.914 1.688l-1.195 1.477c-.376 .469-.692 .974-.949 1.512-.258 .539-.341 1.16-.246 1.863l-.352-.035-.352-.035c-.75 0-1.325 .176-1.723 .527-.398 .352-.926 .645-1.582 .879-.095-.281-.211-.551-.352-.809-.141-.257-.352-.433-.633-.527-1.125 .235-2.25 .411-3.375 .527-1.125 .117-2.25 .271-3.375 .457-.517 .095-1.031 .223-1.547 .387-.517 .165-1.055 .316-1.617 .457-.281 .095-.587 .13-.914 .105-.328-.023-.657-.011-.984 .035-1.125 .047-2.345 .13-3.656 .246-1.312 .117-2.485 .481-3.516 1.09-.469-.094-.961-.164-1.477-.211-.517-.046-1.031-.07-1.547-.07-1.125 0-2.355 .105-3.691 .316s-2.521 .622-3.551 1.23c-.235-.094-.481-.164-.738-.211-.258-.046-.552-.07-.879-.07l-.211 .035-.211 .035c-.047 .422 .011 .833 .176 1.23 .164 .398 .457 .715 .879 .949-.188 .517-.281 1.079-.281 1.688 0 .798 .059 1.594 .176 2.391 .116 .798 .176 1.594 .176 2.391 0 .891-.117 1.594-.352 2.109 .468 1.406 .703 2.907 .703 4.5 0 .562-.035 1.114-.105 1.652-.07 .539-.105 1.114-.105 1.723 0 .517 .187 .926 .562 1.23 .375 .306 .562 .715 .562 1.23 0 .188-.047 .376-.141 .562 .656-.141 1.289-.34 1.898-.598 .608-.257 1.241-.387 1.898-.387 .375 0 .738 .07 1.09 .211s.668 .328 .949 .562c-.047 .235-.082 .492-.105 .773-.024 .281-.035 .562-.035 .844 0 .517 .011 .996 .035 1.441 .023 .446 .059 .926 .105 1.441-.376 .657-.809 1.242-1.301 1.758-.492 .517-.833 1.172-1.02 1.969-.703 0-1.325 .152-1.863 .457-.539 .306-1.044 .633-1.512 .984-.469 .352-.938 .68-1.406 .984-.469 .306-.984 .457-1.547 .457-.703 0-1.195-.105-1.477-.316s-.492-.433-.633-.668l-.387-.633c-.117-.187-.363-.257-.738-.211-.095-.608-.281-1.184-.562-1.723-.281-.538-.574-1.065-.879-1.582-.306-.516-.609-1.043-.914-1.582-.306-.538-.527-1.09-.668-1.652-.281-1.219-.398-2.484-.352-3.797 .046-1.312-.165-2.577-.633-3.797 .094-.656 .164-1.324 .211-2.004 .046-.679 .07-1.347 .07-2.004 0-1.312-.035-2.612-.105-3.902-.07-1.289-.13-2.612-.176-3.973-.328-.422-.527-.902-.598-1.441-.07-.538-.13-1.065-.176-1.582-.141-.141-.293-.281-.457-.422-.165-.141-.271-.327-.316-.562-.376-.094-.657-.141-.844-.141-.657 0-1.207 .152-1.652 .457-.446 .306-.855 .457-1.23 .457-.376 0-.728-.046-1.055-.141-.328-.094-.657-.141-.984-.141-.281 0-.434 .06-.457 .176-.024 .117-.13 .223-.316 .316-.141 .095-.469 .188-.984 .281-.517 .095-1.09 .176-1.723 .246s-1.242 .13-1.828 .176c-.587 .047-.974 .07-1.16 .07-.749 0-1.324-.151-1.723-.457-.397-.305-.879-.644-1.441-1.02 .095-.281 .141-.468 .141-.562 0-.468-.141-.854-.422-1.16-.281-.305-.422-.573-.422-.809 0-.516 .2-.914 .598-1.195 .398-.281 .622-.727 .668-1.336 1.079-.468 2.18-.819 3.305-1.055 1.125-.234 2.273-.422 3.445-.562 1.171-.141 2.331-.305 3.48-.492 1.148-.187 2.285-.492 3.41-.914 .327 .047 .644 .082 .949 .105 .305 .024 .621 .035 .949 .035 1.406 0 2.801-.151 4.184-.457 1.382-.305 2.801-.457 4.254-.457 .375 0 .749 .024 1.125 .07 .375 .047 .749 .117 1.125 .211 1.874-.281 3.737-.586 5.59-.914 1.852-.327 3.762-.608 5.73-.844 .938-.094 1.863-.176 2.777-.246s1.839-.176 2.777-.316c.327-.046 .573-.129 .738-.246 .164-.116 .246-.362 .246-.738 .422 .188 .89 .281 1.406 .281 .797 0 1.57-.141 2.32-.422 .749-.281 1.522-.422 2.32-.422 .187 0 .352 .012 .492 .035 .141 .024 .281 .035 .422 .035 .327 0 .503-.151 .527-.457 .023-.305 .246-.503 .668-.598 .327-.094 .797-.164 1.406-.211 .608-.046 1.254-.105 1.934-.176 .679-.07 1.312-.164 1.898-.281 .586-.116 1.02-.292 1.301-.527l.492-.773c.844 .047 1.465 .411 1.863 1.09 .397 .68 .621 1.418 .668 2.215 .187 .188 .457 .271 .809 .246 .352-.023 .668-.035 .949-.035h.216z"/><path d="M476.043 143.189v.281c-.328 .095-.492 .328-.492 .703-.517 .235-1.055 .411-1.617 .527-.562 .117-1.102 .293-1.617 .527-.517-.046-1.044-.081-1.582-.105-.539-.023-1.066-.035-1.582-.035-1.406 0-2.812 .047-4.219 .141-1.406 .095-2.812 .095-4.219 0-.657 .376-1.371 .668-2.145 .879s-1.512 .316-2.215 .316c-.562 0-1.055-.07-1.477-.211-1.125 .562-2.355 1.031-3.691 1.406-1.336 .376-2.684 .738-4.043 1.09-1.36 .352-2.661 .75-3.902 1.195-1.242 .446-2.332 1.066-3.27 1.863-.095 .657-.165 1.301-.211 1.934-.047 .633-.07 1.255-.07 1.863 0 .657 .035 1.266 .105 1.828s.222 1.125 .457 1.688c.234 .095 .503 .165 .809 .211 .305 .047 .573 .07 .809 .07 .234 0 .468-.035 .703-.105 .234-.07 .397-.222 .492-.457 .703-.094 1.406-.129 2.109-.105 .703 .024 1.406 .035 2.109 .035s1.395-.023 2.074-.07c.679-.046 1.347-.164 2.004-.352 .749-.187 1.487-.305 2.215-.352l2.145-.141c.703-.046 1.43-.129 2.18-.246 .749-.116 1.522-.362 2.32-.738 .608 .235 1.23 .352 1.863 .352s1.254 .047 1.863 .141c.327 .235 .598 .492 .809 .773s.316 .609 .316 .984c0 .657-.235 1.312-.703 1.969-.469 .657-.844 1.266-1.125 1.828h-.773c-1.125 0-2.215 .152-3.27 .457-1.055 .306-2.109 .657-3.164 1.055-1.055 .398-2.109 .75-3.164 1.055-1.055 .306-2.145 .457-3.27 .457-.188 0-.293 .105-.316 .316-.024 .211-.082 .363-.176 .457-.235-.046-.587-.07-1.055-.07-1.079 0-2.109 .117-3.094 .352-.984 .235-1.993 .352-3.023 .352-.281 0-.562-.011-.844-.035-.281-.023-.562-.059-.844-.105-.235 .376-.539 .622-.914 .738-.376 .117-.728 .316-1.055 .598-.141 .422-.223 .938-.246 1.547l-.07 1.863c-.024 .633-.082 1.23-.176 1.793-.095 .562-.281 1.009-.562 1.336 .046 .235 .234 .316 .562 .246 .327-.07 .492 .082 .492 .457 0 .422-.047 .868-.141 1.336-.095 .469-.141 .938-.141 1.406 0 .891 .105 1.863 .316 2.918s.538 2.028 .984 2.918c.445 .891 1.043 1.629 1.793 2.215 .749 .587 1.688 .879 2.812 .879 .749 0 1.452-.141 2.109-.422 .656-.281 1.195-.749 1.617-1.406l.352-.07c.187 0 .362 .024 .527 .07 .164 .047 .34 .07 .527 .07 .281 0 .644-.176 1.09-.527 .445-.352 .938-.762 1.477-1.23 .538-.468 1.09-.925 1.652-1.371 .562-.445 1.101-.762 1.617-.949 .327-.656 .644-1.312 .949-1.969 .305-.656 .762-1.171 1.371-1.547v-2.039c.468-.516 .973-.984 1.512-1.406 .538-.422 .949-.96 1.23-1.617 .234 .095 .457 .165 .668 .211 .211 .047 .433 .07 .668 .07 .234 0 .48-.023 .738-.07 .257-.046 .503-.116 .738-.211 .375 .517 .668 1.09 .879 1.723s.48 1.23 .809 1.793c-.422 .844-.914 1.853-1.477 3.023-.562 1.172-1.172 2.345-1.828 3.516-.657 1.172-1.348 2.285-2.074 3.34-.728 1.055-1.441 1.863-2.145 2.426-.141 .141-.446 .305-.914 .492-.517 .375-.984 .738-1.406 1.09s-.82 .762-1.195 1.23c-1.36 .422-2.661 .984-3.902 1.688-1.242 .703-2.473 1.382-3.691 2.039-.562-.141-1.172-.211-1.828-.211-.562 0-1.125 .035-1.688 .105s-1.172 .105-1.828 .105c-.188-.235-.457-.387-.809-.457s-.481-.316-.387-.738c-1.594-.095-2.883-.527-3.867-1.301s-1.817-1.723-2.496-2.848c-.68-1.125-1.23-2.344-1.652-3.656-.422-1.312-.867-2.577-1.336-3.797v-.211c0-.234 .095-.375 .281-.422 .188-.046 .281-.187 .281-.422 0-.094-.023-.164-.07-.211-.141-.516-.257-.96-.352-1.336-.094-.375-.141-.819-.141-1.336 0-.749 .047-1.487 .141-2.215 .095-.727 .141-1.465 .141-2.215 0-.749-.094-1.406-.281-1.969 .188-.234 .341-.551 .457-.949 .117-.397 .2-.809 .246-1.23s.081-.844 .105-1.266c.023-.422 .081-.797 .176-1.125-.188-.516-.352-.973-.492-1.371-.141-.397-.211-.879-.211-1.441v-.492c.468-.797 .867-1.617 1.195-2.461 .327-.844 .679-1.711 1.055-2.602v-.211c0-1.359-.047-2.718-.141-4.078-.095-1.359-.141-2.718-.141-4.078v-1.336c0-.468 .023-.914 .07-1.336 .375-.187 .656-.445 .844-.773 .187-.327 .468-.586 .844-.773h2.32l.422-.703c.141-.234 .234-.492 .281-.773 .516-.141 1.02-.34 1.512-.598 .492-.257 .949-.527 1.371-.809l1.793-1.02c.538-.305 1.078-.562 1.617-.773 .538-.211 1.113-.387 1.723-.527 .608-.141 1.312-.257 2.109-.352 .375 0 .621-.07 .738-.211 .116-.141 .292-.305 .527-.492 .562 .095 1.125 .176 1.688 .246s1.125 .105 1.688 .105c1.125 0 2.18-.211 3.164-.633 1.406 0 2.801-.023 4.184-.07 1.382-.046 2.777-.07 4.184-.07 1.219 0 2.437 .047 3.656 .141 1.219 .095 2.414 .258 3.586 .492 .422-.141 .89-.211 1.406-.211 .562 0 1.136 .06 1.723 .176 .586 .117 1.16 .13 1.723 .035 .046 .517 .176 .949 .387 1.301s.321 .76 .321 1.228z"/><path d="M519.918 153.243c0 .469-.165 .773-.492 .914-.328 .141-.492 .422-.492 .844 0 .141 .046 .258 .141 .352 .094 .095 .141 .235 .141 .422v.281c-.562 2.719-1.371 5.087-2.426 7.102-1.055 2.016-2.285 3.867-3.691 5.555s-2.988 3.281-4.746 4.781c-1.758 1.501-3.646 3.07-5.66 4.711-.562 .469-1.137 .938-1.723 1.406-.587 .469-1.137 .961-1.652 1.477l-1.547 1.477c-.047 .047-.306 .152-.773 .316-.469 .165-.75 .271-.844 .316-.657 .281-1.348 .609-2.074 .984-.728 .376-1.348 .844-1.863 1.406-.938 0-1.734 .141-2.391 .422-.657 .281-1.383 .657-2.18 1.125-.235 0-.434-.046-.598-.141l-.527-.281c-.188-.094-.387-.151-.598-.176-.211-.023-.481 .012-.809 .105-.562-.938-1.172-1.733-1.828-2.391-.657-.656-1.547-1.055-2.672-1.195-.141-.797-.469-1.417-.984-1.863-.517-.445-1.031-.925-1.547-1.441-.095-.281-.165-.608-.211-.984-.047-.375-.141-.727-.281-1.055-.141-.327-.328-.608-.562-.844-.235-.234-.562-.352-.984-.352-.047-.281 .07-.422 .352-.422s.422-.116 .422-.352c0-.281-.047-.562-.141-.844-.095-.281-.141-.586-.141-.914 0-.234 .023-.445 .07-.633 .046-.187 .116-.397 .211-.633-.141-1.266-.211-2.555-.211-3.867 0-2.531 .176-5.027 .527-7.488s.527-4.957 .527-7.488c0-1.125-.06-2.25-.176-3.375-.117-1.125-.341-2.226-.668-3.305-1.079 .235-2.156 .504-3.234 .809-1.079 .306-2.085 .715-3.023 1.23-.516-.327-1.065-.527-1.652-.598-.586-.07-1.16-.199-1.723-.387-.327-.656-.492-1.336-.492-2.039 0-.656 .117-1.289 .352-1.898l.703-1.828c1.125-.234 2.239-.586 3.34-1.055 1.101-.468 2.215-.89 3.34-1.266l1.441-.352c.586-.141 .995-.257 1.23-.352 .327-.141 .551-.41 .668-.809 .116-.397 .292-.738 .527-1.02h1.195c.281 0 .586 .012 .914 .035 .327 .024 .633 .105 .914 .246 1.688-.422 3.375-.691 5.062-.809 1.688-.116 3.421-.292 5.203-.527 .187 0 .468-.023 .844-.07l1.195-.211c.422-.094 .809-.176 1.16-.246s.598-.105 .738-.105 .211 .07 .211 .211h1.195c2.015 0 3.983 .258 5.906 .773l5.766 1.547c.797 .657 1.593 1.29 2.391 1.898 .797 .609 1.688 1.149 2.672 1.617 .234 .75 .598 1.348 1.09 1.793 .492 .446 1.043 .926 1.652 1.441 .234 .609 .551 1.255 .949 1.934 .397 .68 .784 1.371 1.16 2.074 .375 .703 .703 1.396 .984 2.074 .282 .685 .423 1.33 .423 1.938zM513.379 154.298c-.517-1.078-1.009-2.203-1.477-3.375-.469-1.171-1.055-2.226-1.758-3.164-.844-.234-1.699-.527-2.566-.879-.868-.352-1.466-.973-1.793-1.863-.095 .047-.258 .07-.492 .07-.422 0-.798-.164-1.125-.492-.328-.327-.703-.538-1.125-.633-.376-.046-.879-.116-1.512-.211-.633-.094-1.301-.164-2.004-.211l-2.074-.141c-.68-.046-1.207-.07-1.582-.07-.376 0-.763 .012-1.16 .035-.398 .024-.809 .06-1.23 .105-.376 0-.609 .06-.703 .176-.095 .117-.281 .223-.562 .316-.235-.094-.492-.141-.773-.141h-.844c-.984 0-1.958 .152-2.918 .457-.961 .306-1.91 .715-2.848 1.23v.281c0 .376 .164 .587 .492 .633 .327 .047 .516 .235 .562 .562-.235 0-.422 .012-.562 .035-.141 .024-.211 .2-.211 .527 0 .469 .059 .984 .176 1.547 .116 .562 .176 1.125 .176 1.688 0 .422-.047 .914-.141 1.477-.095 .562-.328 1.009-.703 1.336 .468 .422 .703 .984 .703 1.688 0 .469-.095 .961-.281 1.477-.188 .517-.422 .961-.703 1.336-.095 1.969-.281 3.962-.562 5.977-.281 2.016-.422 4.008-.422 5.977 0 .984 .059 1.945 .176 2.883 .116 .938 .316 1.875 .598 2.812 .516 .517 1.065 .914 1.652 1.195 .586 .281 1.206 .562 1.863 .844v.211c0 .141-.095 .281-.281 .422-.188 .141-.281 .328-.281 .562 0 .188 .094 .281 .281 .281 1.969-.562 3.82-1.241 5.555-2.039 1.733-.797 3.351-1.874 4.852-3.234 .141-.141 .281-.211 .422-.211 .094 0 .222 .024 .387 .07l.457 .141-.07-.281c0-.281 .081-.538 .246-.773 .164-.234 .362-.445 .598-.633l.703-.633c.234-.234 .422-.468 .562-.703 .375-.094 .644-.281 .809-.562 .164-.281 .457-.422 .879-.422 .094-.516 .352-.902 .773-1.16 .422-.257 .679-.644 .773-1.16 .938-.516 1.769-1.148 2.496-1.898 .727-.749 1.406-1.547 2.039-2.391s1.23-1.723 1.793-2.637 1.148-1.793 1.758-2.637v-.281c0-.749 .129-1.359 .387-1.828 .254-.468 .454-1.031 .595-1.688z"/><path d="M270.601 212.706h-.195c-.065-.032-.13-.032-.195 0-.065 .033-.098 .082-.098 .146 .065 .261 .098 .439 .098 .537 0 .391-.122 .725-.366 1.001-.244 .277-.366 .513-.366 .708 0 .098 .057 .18 .171 .244l.269 .146c-.163 .195-.31 .407-.439 .635-.13 .229-.277 .424-.439 .586 .065 1.14 .203 2.255 .415 3.345 .211 1.091 .317 2.189 .317 3.296 0 .554-.057 1.099-.171 1.636-.114 .537-.236 1.074-.366 1.611-.13 .537-.252 1.074-.366 1.611-.114 .537-.171 1.083-.171 1.636-.423 .847-.879 1.652-1.367 2.417-.488 .766-.847 1.604-1.074 2.515-.749 .456-1.392 1.018-1.929 1.685l-1.587 1.978c-1.14 .391-2.181 .912-3.125 1.562-.163 .033-.31 .049-.439 .049h-.391c-1.237 0-2.295-.228-3.174-.684-.879-.455-1.636-1.05-2.271-1.782s-1.18-1.57-1.636-2.515c-.456-.943-.879-1.92-1.27-2.93-.749 .554-1.424 1.181-2.026 1.88-.603 .7-1.213 1.392-1.831 2.075-.195 .261-.432 .562-.708 .903-.277 .342-.545 .595-.806 .757-.13 .065-.269 .122-.415 .171l-.464 .171c-.912 .521-1.628 1.221-2.148 2.1-.651 .261-1.278 .554-1.88 .879-.603 .326-1.18 .668-1.733 1.025-.619 .033-1.229 .073-1.831 .122-.603 .049-1.196 .073-1.782 .073-.912 0-1.555-.057-1.929-.171-.375-.113-.667-.26-.879-.439-.212-.179-.423-.398-.635-.659-.212-.26-.61-.537-1.196-.83-.163-.423-.317-.846-.464-1.27-.146-.423-.35-.813-.61-1.172v-.684c0-.293-.008-.569-.024-.83-.017-.26-.073-.496-.171-.708-.098-.211-.26-.35-.488-.415 0-1.204 .146-2.393 .439-3.564s.537-2.359 .732-3.564c.163-.684 .26-1.383 .293-2.1 .032-.162 .049-.342 .049-.537s.032-.391 .098-.586c.065-.195 .179-.357 .342-.488 .163-.13 .276-.325 .342-.586 .163-.455 .26-.96 .293-1.514 .032-.553 .081-1.074 .146-1.562 .163-.977 .35-1.953 .562-2.93 .211-.977 .464-1.937 .757-2.881-.033-.162-.049-.309-.049-.439v-.488c0-1.236 .089-2.441 .269-3.613 .179-1.172 .269-2.376 .269-3.613 0-.586-.049-1.204-.146-1.855 .163-.325 .35-.626 .562-.903 .211-.276 .496-.496 .854-.659 .684 .358 1.359 .741 2.026 1.147 .667 .407 1.31 .854 1.929 1.343v1.172c0 .944-.024 1.945-.073 3.003-.049 1.059-.146 2.124-.293 3.198s-.334 2.116-.562 3.125c-.228 1.01-.537 1.938-.928 2.783v1.562c-.586 1.042-.977 2.133-1.172 3.271-.195 1.14-.423 2.279-.684 3.418-.065 .358-.195 .781-.391 1.27s-.293 .912-.293 1.27c0 .163 .024 .326 .073 .488 .049 .163 .089 .326 .122 .488-.261 .586-.399 1.213-.415 1.88-.017 .668-.106 1.327-.269 1.978 .26 .424 .496 .871 .708 1.343 .211 .473 .447 .952 .708 1.44l.488-.049c.293 0 .602 .024 .928 .073 .325 .049 .635 .073 .928 .073 .163 0 .325-.008 .488-.024 .163-.016 .325-.04 .488-.073 .195-.357 .456-.643 .781-.854 .325-.211 .659-.398 1.001-.562 .342-.162 .667-.342 .977-.537 .309-.195 .562-.472 .757-.83h.684c.065-.098 .187-.228 .366-.391 .179-.162 .35-.325 .513-.488 .163-.162 .301-.325 .415-.488 .114-.162 .154-.293 .122-.391 .391-.162 .724-.382 1.001-.659 .276-.276 .545-.569 .806-.879 .26-.309 .521-.61 .781-.903 .26-.293 .569-.537 .928-.732-.033-.064-.049-.146-.049-.244 0-.293 .089-.521 .269-.684 .179-.162 .22-.455 .122-.879l.146 .049c.163 0 .276-.049 .342-.146 .065-.098 .122-.211 .171-.342 .049-.13 .114-.252 .195-.366 .081-.113 .203-.187 .366-.22v-.098c0-.586 .122-1.139 .366-1.66 .244-.521 .366-1.074 .366-1.66 0-.162-.017-.317-.049-.464-.033-.146-.082-.301-.146-.464 .293-.325 .48-.699 .562-1.123 .081-.423 .13-.862 .146-1.318 .016-.455 .041-.911 .073-1.367 .032-.455 .163-.895 .391-1.318 0-.325-.114-.553-.342-.684l.586-.781c.195-.26 .423-.472 .684-.635h.098c.358 0 .675 .09 .952 .269 .276 .18 .537 .375 .781 .586 .244 .212 .496 .424 .757 .635 .26 .212 .553 .366 .879 .464v1.074c.325 .131 .569 .358 .732 .684-.033 .879-.057 1.758-.073 2.637-.017 .879-.024 1.742-.024 2.588 0 1.303 .032 2.597 .098 3.882 .065 1.286 .228 2.563 .488 3.833 .358 .358 .724 .717 1.099 1.074 .374 .358 .659 .766 .854 1.221h.586c1.139 0 2.018-.366 2.637-1.099 .618-.732 1.058-1.587 1.318-2.563 .488-.228 .854-.545 1.099-.952 .244-.406 .439-.854 .586-1.343s.276-.984 .391-1.489c.114-.504 .301-.952 .562-1.343 .032-.391 .049-.781 .049-1.172v-1.221c0-1.888-.09-3.768-.269-5.64-.179-1.871-.285-3.735-.317-5.591-.13-.26-.228-.569-.293-.928l-.146-1.074c-.033-.357-.106-.691-.22-1.001-.114-.309-.285-.528-.513-.659 .098-.325 .146-.716 .146-1.172 0-.423-.041-.846-.122-1.27-.082-.423-.171-.846-.269-1.27 .26-.228 .472-.455 .635-.684 .163-.228 .439-.342 .83-.342 .228 0 .431 .065 .61 .195 .179 .131 .35 .277 .513 .439 .163 .163 .333 .31 .513 .439 .179 .131 .398 .195 .659 .195l.22-.024 .269-.024c.325 .326 .594 .732 .806 1.221 .211 .488 .407 1.001 .586 1.538 .179 .537 .374 1.066 .586 1.587 .211 .521 .48 .993 .806 1.416l-.024 .269-.024 .269c0 .293 .049 .586 .146 .879s.174 .584 .239 .877z"/><path d="M284.273 237.218c-.163 .261-.358 .497-.586 .708-.229 .212-.439 .432-.635 .659-.229 .098-.48 .146-.757 .146-.277 0-.537-.008-.781-.024-.244-.016-.472-.016-.684 0-.212 .017-.383 .09-.513 .22-.261-.064-.456-.187-.586-.366-.13-.179-.358-.284-.684-.317-.13-.032-.261-.032-.391 0-.488-.553-.936-1.139-1.343-1.758-.407-.618-.79-1.204-1.147-1.758-.033-1.204-.13-2.425-.293-3.662-.033-.293-.082-.586-.146-.879-.065-.293-.114-.569-.146-.83 0-.325 .024-.643 .073-.952 .049-.309 .089-.594 .122-.854 .13-.943 .276-1.871 .439-2.783 .163-.911 .309-1.839 .439-2.783 .13-.846 .195-1.733 .195-2.661s-.146-1.798-.439-2.612l-.049-.244c.065-.26 .138-.479 .22-.659 .081-.179 .138-.382 .171-.61 .065-.357-.017-.618-.244-.781 .098-.26 .26-.431 .488-.513 .228-.081 .358-.269 .391-.562 .032-.13 .032-.26 0-.391 .26-.098 .529-.187 .806-.269 .276-.081 .545-.089 .806-.024 .423 .065 .797 .204 1.123 .415 .325 .212 .635 .448 .928 .708 .521 1.562 .732 3.215 .635 4.956-.098 1.742-.261 3.491-.488 5.249-.228 1.758-.375 3.476-.439 5.151-.065 1.677 .195 3.231 .781 4.663l.098 .049c.163 .033 .293-.024 .391-.171s.228-.203 .391-.171l.244 .098c.13 .651 .342 1.27 .635 1.855s.617 1.171 .975 1.757z"/><path d="M330.953 212.511c-.131 .424-.342 .814-.635 1.172l-.83 1.025c-.261 .326-.48 .676-.659 1.05-.179 .375-.236 .806-.171 1.294l-.244-.024-.244-.024c-.521 0-.92 .122-1.196 .366s-.644 .448-1.099 .61c-.065-.195-.146-.382-.244-.562-.098-.179-.244-.301-.439-.366-.781 .163-1.562 .285-2.344 .366-.781 .082-1.562 .188-2.344 .317-.358 .065-.717 .155-1.074 .269-.358 .114-.732 .22-1.123 .317-.195 .065-.407 .09-.635 .073-.229-.016-.456-.008-.684 .024-.781 .033-1.628 .09-2.539 .171-.912 .082-1.726 .334-2.441 .757-.326-.064-.668-.113-1.025-.146-.358-.032-.717-.049-1.074-.049-.781 0-1.636 .073-2.563 .22s-1.75 .432-2.466 .854c-.163-.064-.334-.113-.513-.146-.179-.032-.383-.049-.61-.049l-.146 .024-.146 .024c-.033 .293 .008 .578 .122 .854 .114 .277 .317 .497 .61 .659-.131 .358-.195 .749-.195 1.172 0 .554 .041 1.107 .122 1.66 .081 .554 .122 1.107 .122 1.66 0 .619-.082 1.107-.244 1.465 .325 .977 .488 2.019 .488 3.125 0 .391-.024 .773-.073 1.147-.049 .375-.073 .773-.073 1.196 0 .358 .13 .644 .391 .854 .26 .212 .391 .497 .391 .854 0 .131-.033 .261-.098 .391 .455-.098 .895-.235 1.318-.415 .423-.179 .862-.269 1.318-.269 .26 0 .513 .049 .757 .146s.464 .229 .659 .391c-.033 .163-.057 .342-.073 .537l-.024 .586c0 .358 .008 .692 .024 1.001 .017 .31 .04 .644 .073 1.001-.261 .456-.562 .863-.903 1.221-.342 .358-.578 .814-.708 1.367-.488 0-.92 .106-1.294 .317-.374 .212-.725 .439-1.05 .684-.326 .244-.651 .473-.977 .684-.326 .212-.684 .317-1.074 .317-.488 0-.83-.073-1.025-.22s-.342-.301-.439-.464l-.269-.439c-.081-.13-.253-.179-.513-.146-.065-.423-.195-.821-.391-1.196-.195-.374-.398-.74-.61-1.099-.212-.357-.423-.724-.635-1.099-.212-.374-.366-.757-.464-1.147-.195-.846-.277-1.725-.244-2.637 .032-.911-.114-1.79-.439-2.637 .064-.455 .113-.919 .146-1.392 .032-.472 .049-.936 .049-1.392 0-.911-.024-1.814-.073-2.71-.049-.895-.09-1.814-.122-2.759-.229-.293-.366-.626-.415-1.001-.049-.374-.09-.74-.122-1.099l-.317-.293s-.188-.228-.22-.391c-.261-.064-.456-.098-.586-.098-.456 0-.838 .106-1.147 .317-.31 .212-.595 .317-.854 .317-.261 0-.505-.032-.732-.098-.229-.064-.456-.098-.684-.098-.195 0-.301 .041-.317 .122-.017 .082-.09 .155-.22 .22-.098 .065-.326 .131-.684 .195-.358 .065-.757 .122-1.196 .171s-.862 .09-1.27 .122c-.407 .033-.676 .049-.806 .049-.521 0-.92-.105-1.196-.317-.276-.211-.61-.447-1.001-.708 .065-.195 .098-.325 .098-.391 0-.325-.098-.594-.293-.806-.195-.211-.293-.398-.293-.562 0-.357 .139-.635 .415-.83s.432-.504 .464-.928c.749-.325 1.514-.569 2.295-.732 .781-.162 1.578-.293 2.393-.391 .813-.098 1.619-.211 2.417-.342 .798-.13 1.587-.342 2.368-.635 .228 .033 .447 .058 .659 .073 .212 .017 .431 .024 .659 .024 .977 0 1.945-.105 2.905-.317 .96-.211 1.944-.317 2.954-.317 .26 0 .521 .017 .781 .049 .26 .033 .521 .082 .781 .146 1.302-.195 2.596-.406 3.882-.635 1.286-.228 2.612-.423 3.979-.586 .65-.064 1.294-.122 1.929-.171s1.277-.122 1.929-.22c.228-.032 .398-.089 .513-.171 .114-.081 .171-.252 .171-.513 .293 .131 .618 .195 .977 .195 .553 0 1.09-.098 1.611-.293 .521-.195 1.058-.293 1.611-.293l.342 .024 .293 .024c.228 0 .35-.105 .366-.317 .017-.211 .171-.35 .464-.415 .228-.064 .553-.113 .977-.146 .423-.032 .871-.073 1.343-.122s.911-.113 1.318-.195c.407-.081 .708-.203 .903-.366l.342-.537c.586 .033 1.018 .285 1.294 .757 .276 .473 .431 .985 .464 1.538 .13 .131 .317 .188 .562 .171 .244-.016 .464-.024 .659-.024h.143z"/><path d="M354.586 221.105c-.131 .326-.261 .635-.391 .928-.131 .293-.229 .619-.293 .977-.229 .163-.48 .285-.757 .366l-.854 .244c-.293 .082-.562 .18-.806 .293-.244 .114-.432 .285-.562 .513-.098 .488-.146 .944-.146 1.367 0 .554 .098 1.025 .293 1.416-.098 .293-.163 .603-.195 .928-.033 .326-.049 .635-.049 .928 0 1.074 .13 2.141 .391 3.198 .26 1.059 .406 2.124 .439 3.198 0 .163-.017 .342-.049 .537-.033 .195-.049 .375-.049 .537 0 .684 .26 1.14 .781 1.367-.098 .163-.146 .31-.146 .439 0 .261 .032 .488 .098 .684 .064 .195 .081 .407 .049 .635 .162 .326 .325 .61 .488 .854 .162 .244 .276 .546 .342 .903-.229 .456-.505 .871-.83 1.245-.326 .375-.554 .839-.684 1.392-.131-.033-.277-.049-.439-.049-.229 0-.407 .049-.537 .146-.131 .098-.236 .22-.317 .366l-.269 .439s-.229 .252-.391 .317h-.146c-.163 .032-.301 .024-.415-.024s-.22-.073-.317-.073c-.065 0-.195 .032-.391 .098-.261-.326-.439-.708-.537-1.147s-.146-.87-.146-1.294c0-.455 .064-.862 .195-1.221-.358-.293-.578-.732-.659-1.318s-.171-1.074-.269-1.465c-.261-1.204-.562-2.376-.903-3.516-.342-1.139-.546-2.311-.61-3.516-.033-.455-.049-.895-.049-1.318v-2.539c0-.423 .016-.83 .049-1.221 0-.293 .024-.577 .073-.854 .049-.276 .073-.562 .073-.854 0-.391-.131-.765-.391-1.123-2.312 .098-4.5 .513-6.567 1.245s-4.126 1.604-6.177 2.612c-.131 .749-.212 1.481-.244 2.197-.033 .717-.049 1.449-.049 2.197v2.148c0 .814 .032 1.498 .098 2.051 .162 .944 .643 1.669 1.44 2.173 .798 .505 1.603 .888 2.417 1.147-.033 .488-.131 .903-.293 1.245-.163 .342-.366 .651-.61 .928-.244 .277-.513 .546-.806 .806-.293 .261-.586 .554-.879 .879-.261-.162-.521-.276-.781-.342-.261-.064-.537-.105-.83-.122-.293-.016-.586-.04-.879-.073-.293-.032-.586-.098-.879-.195l-1.074-1.465c-.358-.488-.749-.977-1.172-1.465v-.439c0-.879-.163-1.725-.488-2.539-.326-.813-.57-1.644-.732-2.49 .098-.293 .162-.586 .195-.879 .032-.293 .049-.602 .049-.928 0-.65-.024-1.285-.073-1.904-.049-.618-.041-1.236 .024-1.855h-.244c-.293 0-.603 .073-.928 .22-.326 .146-.643 .31-.952 .488-.31 .18-.603 .342-.879 .488s-.513 .22-.708 .22c-.098 0-.195-.016-.293-.049-.098-.032-.211-.049-.342-.049-.162 0-.357 .065-.586 .195-.228 .131-.48 .269-.757 .415s-.562 .285-.854 .415c-.293 .131-.586 .195-.879 .195-.455 0-.911-.195-1.367-.586-.064-.26-.09-.504-.073-.732 .017-.228 .024-.472 .024-.732 0-.26-.049-.537-.146-.83 .229-.423 .529-.757 .903-1.001s.765-.472 1.172-.684c.407-.211 .822-.423 1.245-.635 .424-.211 .781-.496 1.074-.854h.293c.456 0 .871-.098 1.245-.293s.806-.276 1.294-.244c.162-.064 .276-.309 .342-.732l.195 .049c.716 0 1.351-.244 1.904-.732 .357-2.018 .65-4.053 .879-6.104 .228-2.051 .342-4.102 .342-6.152 0-.195-.065-.391-.195-.586-.065-.26-.098-.504-.098-.732v-.732c0-.357 .016-.732 .049-1.123 .032-.391 .113-.781 .244-1.172 .325-.195 .667-.293 1.025-.293 .423 0 .838 .058 1.245 .171 .407 .114 .806 .204 1.196 .269 .293 .293 .513 .619 .659 .977 .146 .358 .235 .725 .269 1.099 .032 .375 .041 .749 .024 1.123-.017 .375-.024 .741-.024 1.099 0 .717 .081 1.416 .244 2.1 .162 .684 .244 1.352 .244 2.002 0 .163-.057 .285-.171 .366-.114 .082-.171 .302-.171 .659 0 .358 .032 .732 .098 1.123 .064 .391 .098 .781 .098 1.172 0 .456-.065 .928-.195 1.416-.131 .488-.244 .961-.342 1.416 1.953-.162 3.955-.406 6.006-.732 2.051-.325 4.004-.846 5.859-1.562 .032-.064 .049-.162 .049-.293 0-.195-.017-.391-.049-.586-.033-.195-.049-.406-.049-.635 0-.391 .13-.699 .391-.928-.163-.911-.277-1.822-.342-2.734-.065-.911-.098-1.822-.098-2.734v-2.783c0-.911-.017-1.822-.049-2.734 .26-.162 .537-.244 .83-.244 .357 0 .691 .09 1.001 .269 .31 .18 .675 .269 1.099 .269 .293 0 .537-.049 .732-.146 .357 .326 .602 .749 .732 1.27 .13 .521 .244 1.059 .342 1.611 .098 .554 .203 1.099 .317 1.636s.35 .969 .708 1.294l.049 .146c0 .131-.065 .229-.195 .293-.131 .065-.195 .195-.195 .391v.195c.13 .521 .228 1.059 .293 1.611 .064 .554 .122 1.115 .171 1.685 .049 .57 .122 1.123 .22 1.66s.276 1.034 .537 1.489c.162-.032 .374-.049 .635-.049 .65 0 1.164 .22 1.538 .659s.708 .882 1.001 1.337z"/><g fill="#092E20"><path d="M132.614 221.159h23.872v110.496c-12.246 2.324-21.237 3.255-31.002 3.255-29.143-.001-44.334-13.175-44.334-38.442 0-24.338 16.122-40.147 41.078-40.147 3.875 0 6.82 .31 10.386 1.239v-36.401zM132.614 276.78c-2.79-.929-5.115-1.239-8.06-1.239-12.091 0-19.067 7.441-19.067 20.461 0 12.713 6.666 19.688 18.912 19.688 2.634 0 4.805-.155 8.215-.619v-38.291z"/><path d="M194.462 258.025v55.338c0 19.066-1.395 28.212-5.58 36.117-3.876 7.598-8.992 12.402-19.532 17.673l-22.167-10.541c10.541-4.96 15.656-9.3 18.911-15.968 3.411-6.819 4.497-14.726 4.497-35.496v-47.123h23.871zM170.591 221.286h23.871v24.492h-23.871v-24.492z"/><path d="M208.881 263.449c10.542-4.959 20.617-7.129 31.623-7.129 12.246 0 20.306 3.254 23.872 9.61 2.014 3.564 2.634 8.215 2.634 18.137v48.517c-10.697 1.55-24.182 2.636-34.102 2.636-19.996 0-28.988-6.978-28.988-22.478 0-16.742 11.936-24.492 41.234-26.974v-5.27c0-4.34-2.17-5.889-8.216-5.889-8.835 0-18.756 2.48-28.058 7.285l.001-18.445zM246.239 301.427c-15.812 1.551-20.927 4.031-20.927 10.231 0 4.649 2.946 6.819 9.456 6.819 3.566 0 6.82-.309 11.471-1.084v-15.966z"/><path d="M278.637 261.744c14.105-3.72 25.731-5.424 37.512-5.424 12.246 0 21.082 2.789 26.354 8.215 4.959 5.114 6.508 10.694 6.508 22.632v46.812h-23.871v-45.883c0-9.145-3.1-12.557-11.625-12.557-3.256 0-6.2 .311-11.008 1.705v56.734h-23.871v-72.234z"/><path d="M358.293 347.001c8.371 4.34 16.741 6.354 25.576 6.354 15.655 0 22.321-6.354 22.321-21.545v-.465c-4.649 2.323-9.302 3.254-15.5 3.254-20.927 0-34.261-13.795-34.261-35.651 0-27.129 19.688-42.474 54.564-42.474 10.232 0 19.688 1.084 31.159 3.41l-8.174 17.219c-6.356-1.24-.509-.166-5.312-.631v2.48l.309 10.074 .154 13.021c.154 3.254 .154 6.51 .311 9.766v6.511c0 20.462-1.705 30.071-6.82 37.978-7.441 11.627-20.307 17.361-38.598 17.361-9.301 0-17.36-1.395-25.732-4.65v-22.012h.003zM405.726 275.696h-2.48c-4.648-.155-10.074 1.084-13.796 3.409-5.733 3.256-8.681 9.146-8.681 17.517 0 11.937 5.893 18.757 16.432 18.757 3.256 0 5.891-.621 8.99-1.55v-8.215c0-2.79-.154-5.892-.154-9.146l-.154-11.006-.155-7.906-.002-1.86z"/><path d="M479.213 256.009c23.871 0 38.442 15.037 38.442 39.373 0 24.959-15.19 40.614-39.373 40.614-23.873 0-38.599-15.037-38.599-39.218 .001-25.114 15.194-40.769 39.53-40.769zM478.746 316.774c9.146 0 14.572-7.597 14.572-20.772 0-13.02-5.271-20.771-14.415-20.771-9.457 0-14.884 7.598-14.884 20.771 .001 13.177 5.427 20.772 14.727 20.772z"/></g></svg>